<svg width="1007" height="937" viewBox="0 0 1007 937" fill="none" xmlns="http://www.w3.org/2000/svg">
<g opacity="0.2" filter="url(#filter0_f_1575_90)">
<ellipse cx="111.846" cy="111.01" rx="111.846" ry="111.01" transform="matrix(1 0 -0.013176 0.999913 190.925 190)" fill="#A4FF7A"/>
</g>
<g opacity="0.33" filter="url(#filter1_f_1575_90)">
<ellipse cx="132.502" cy="131.511" rx="132.502" ry="131.511" transform="matrix(1 0 -0.013176 0.999913 196.466 526)" fill="#BCF374"/>
</g>
<g opacity="0.25" filter="url(#filter2_f_1575_90)">
<path d="M450.698 429.186C434.383 473.406 435.624 522.018 454.174 565.268C472.725 608.519 507.21 643.208 550.713 662.375C594.215 681.542 643.515 683.77 688.721 668.611C733.927 653.452 771.694 622.028 794.445 580.644C817.196 539.26 823.247 490.977 811.385 445.484C799.522 399.992 770.623 360.654 730.486 335.364C690.35 310.075 641.945 300.705 594.984 309.134C548.023 317.563 505.981 343.168 477.292 380.811L628.311 492.338L450.698 429.186Z" fill="#CAF008"/>
</g>
<defs>
<filter id="filter0_f_1575_90" x="0.105042" y="0.652145" width="602.406" height="600.696" filterUnits="userSpaceOnUse" color-interpolation-filters="sRGB">
<feFlood flood-opacity="0" result="BackgroundImageFix"/>
<feBlend mode="normal" in="SourceGraphic" in2="BackgroundImageFix" result="shape"/>
<feGaussianBlur stdDeviation="94.6739" result="effect1_foregroundBlur_1575_90"/>
</filter>
<filter id="filter1_f_1575_90" x="5.37338" y="336.652" width="643.722" height="641.696" filterUnits="userSpaceOnUse" color-interpolation-filters="sRGB">
<feFlood flood-opacity="0" result="BackgroundImageFix"/>
<feBlend mode="normal" in="SourceGraphic" in2="BackgroundImageFix" result="shape"/>
<feGaussianBlur stdDeviation="94.6739" result="effect1_foregroundBlur_1575_90"/>
</filter>
<filter id="filter2_f_1575_90" x="249.954" y="116.767" width="756.715" height="751.142" filterUnits="userSpaceOnUse" color-interpolation-filters="sRGB">
<feFlood flood-opacity="0" result="BackgroundImageFix"/>
<feBlend mode="normal" in="SourceGraphic" in2="BackgroundImageFix" result="shape"/>
<feGaussianBlur stdDeviation="94.6739" result="effect1_foregroundBlur_1575_90"/>
</filter>
</defs>
</svg>
