<svg width="110" height="33" viewBox="0 0 110 33" fill="none" xmlns="http://www.w3.org/2000/svg">
<g clip-path="url(#clip0_1584_150)">
<mask id="mask0_1584_150" style="mask-type:luminance" maskUnits="userSpaceOnUse" x="0" y="4" width="37" height="37">
<path d="M18.2696 40.7834C28.3596 40.7834 36.5392 32.6038 36.5392 22.5138C36.5392 12.4237 28.3596 4.24414 18.2696 4.24414C8.17958 4.24414 0 12.4237 0 22.5138C0 32.6038 8.17958 40.7834 18.2696 40.7834Z" fill="white"/>
</mask>
<g mask="url(#mask0_1584_150)">
<path d="M21.2283 31.6659C20.9549 31.4928 20.7786 31.3828 20.7786 31.3828C20.7786 31.3828 20.3871 31.5041 19.9277 31.6659H21.2283Z" fill="white"/>
<path d="M7.00742 31.6659C5.97213 30.6096 5.23126 29.8574 5.23126 29.8574C5.23126 29.8574 3.95332 30.8329 2.90186 31.6659H7.00742Z" fill="#324A54"/>
<path d="M32.3316 31.6655L31.9951 29.4332L24.6494 27.4062L25.7607 31.6655H32.3316Z" fill="#324A54"/>
<path d="M29.3211 31.6647C28.8245 31.3638 27.8733 31.0532 27.8296 30.9092C27.7714 30.7184 28.3327 29.607 28.3926 29.4243C28.4233 29.3288 26.9157 28.3744 25.4533 27.4766C25.4452 27.4718 25.4436 27.4701 25.4436 27.4701C24.0832 26.6338 22.7632 25.8477 22.7632 25.8477L22.1582 27.386C22.1582 27.386 22.8408 29.51 23.3326 31.6647H29.3211Z" fill="#324A54"/>
<path d="M21.681 31.6652C21.5613 31.1136 20.5309 30.9518 19.9517 31.3902C19.8159 31.4937 19.6864 31.5843 19.5684 31.6652H21.681Z" fill="#6F8C93"/>
<path d="M19.955 31.6658C20.0586 31.6528 20.1653 31.6512 20.2705 31.6658H23.3407C22.946 29.9446 22.4057 27.9824 22.4057 27.9824L19.7512 28.7621L19.2255 31.3228L19.2239 31.3245L19.1543 31.6658H19.955Z" fill="white"/>
<path d="M19.9549 31.6654C20.0584 31.6525 20.1652 31.6509 20.2703 31.6654H20.5243C20.4628 31.6137 20.4062 31.5684 20.3706 31.5538C20.2671 31.5118 20.2606 31.4988 20.2946 31.2804C20.3302 31.0604 20.2865 30.2629 20.3965 29.6935C20.5049 29.1241 20.7572 28.93 20.7572 28.93L20.6472 28.875L19.8772 29.0093C19.8772 29.0093 19.7834 29.1646 19.688 29.6256C19.5925 30.085 19.2868 31.1494 19.2755 31.2012C19.2722 31.2141 19.2544 31.261 19.2269 31.3225L19.2253 31.3241L19.1558 31.6654H19.9549Z" fill="#C1C1C1"/>
<path d="M15.7136 31.6649H19.4714C19.5765 31.5533 19.6768 31.4239 19.7674 31.2702C19.7674 31.2702 19.7739 29.3193 20.0812 28.7257C20.3886 28.132 13.3955 18.2773 13.3955 18.2773L10.8607 18.4148L10.6924 18.4245C10.6924 18.4245 10.9723 22.0642 10.6892 24.8741C10.6876 24.8757 10.6876 24.8757 10.6876 24.8757C10.6391 25.3529 10.576 25.8074 10.4902 26.2151C10.4902 26.2135 12.3521 30.0974 15.7136 31.6649Z" fill="#324A54"/>
<path d="M18.3242 31.6658H19.4711C19.5763 31.5542 19.6766 31.4248 19.7671 31.2711C19.7671 31.2711 19.7736 29.3202 20.081 28.7266L19.167 29.0905C19.167 29.0905 18.9292 29.681 18.6526 29.9074C18.376 30.1323 18.3355 30.3814 18.3404 30.4785C18.3452 30.5739 18.3889 30.8004 18.3404 30.9249C18.3129 30.9913 18.3598 31.3488 18.3242 31.6658Z" fill="#7D9BA5"/>
<path d="M10.6875 24.8736C10.6972 24.8364 10.7069 24.7879 10.7166 24.7264C10.9431 23.2382 10.9447 18.4953 10.9447 18.4953L10.859 18.416L10.6907 18.4257C10.6907 18.4241 10.9706 22.0638 10.6875 24.8736Z" fill="#7D9BA5"/>
<path d="M11.2085 31.6657H15.8123C12.865 30.3037 10.7572 26.6866 10.5145 26.2563C10.5064 26.2434 10.4984 26.2288 10.4903 26.2143C10.6601 25.6222 10.741 24.5869 10.7798 23.7247C10.8154 22.9192 10.8138 22.2656 10.8138 22.2656C10.8138 22.2656 10.2298 22.8496 9.75101 23.5403C9.28998 24.2036 8.65748 25.585 8.71733 25.9571C8.75777 26.2224 8.86454 28.5518 11.2085 31.6657Z" fill="white"/>
<path d="M10.4902 26.2142C10.6601 25.6221 10.741 24.5868 10.7798 23.7246C10.6811 23.8945 10.5565 24.1015 10.411 24.3361C10.013 24.9783 10.1166 25.5299 10.4902 26.2142Z" fill="#C1C1C1"/>
<path d="M8.38063 15.7122C8.70578 16.4547 9.45798 17.7359 9.79445 18.2341C10.1325 18.7324 11.48 18.81 11.48 18.81C11.48 18.81 12.2646 21.9062 12.4846 22.4513C12.703 22.9964 14.0456 25.3388 14.9968 26.201C15.9496 27.0616 18.7497 29.0982 19.4938 29.192C20.2379 29.2842 21.7957 29.006 22.2389 28.5401C22.37 28.4026 22.5139 28.1664 22.6531 27.8914C22.6531 27.8914 22.6531 27.8898 22.6547 27.8898C22.9879 27.2363 23.3033 26.3692 23.3988 26.1379C23.5136 25.8548 23.7789 25.5491 24.0119 25.0945C24.0491 25.0217 24.0863 24.9441 24.1219 24.8632C24.2772 24.5057 24.4486 24.0269 24.6104 23.5384C24.6104 23.5367 24.6104 23.5367 24.6104 23.5335C24.7123 23.2245 24.8094 22.9107 24.8935 22.6228C25.1135 21.8803 25.7945 20.1009 25.7945 20.1009C25.8576 19.9132 25.9191 19.7029 25.9741 19.4797C26.0097 19.3341 26.0452 19.1821 26.0776 19.03C26.2377 18.2875 26.3429 17.511 26.3397 17.0953C26.338 16.8947 26.3429 16.7119 26.3494 16.5582C26.3623 16.2266 26.3849 16.0228 26.3849 16.0228C26.3849 16.0228 27.6144 5.84625 19.049 5.30596C12.2209 4.87405 10.5046 8.59785 10.1067 11.0324C9.91739 12.1825 10.0241 13.0447 10.0241 13.0447C10.0241 13.0447 8.93386 12.278 8.18004 12.8344C7.42137 13.3877 8.05549 14.9697 8.38063 15.7122Z" fill="#7D9BA5"/>
<path d="M21.9316 23.791C21.9316 23.791 21.6113 24.6613 21.5078 24.5966C21.4043 24.5319 21.5563 23.9059 21.5563 23.9059L21.9316 23.791Z" fill="#6F8C93"/>
<path d="M22.0759 20.3588C22.0775 20.3652 22.0775 20.3685 22.0775 20.3685L22.2894 20.3701C22.2878 20.362 22.2878 20.3539 22.2878 20.3474C22.2458 19.9026 22.8524 19.8039 22.8912 19.7991C22.5628 19.7942 22.3655 19.867 22.2474 19.9641C22.1244 20.0676 22.0872 20.1938 22.0775 20.2779L22.0759 20.2957C22.0743 20.3248 22.0759 20.3474 22.0759 20.3588Z" fill="white"/>
<path d="M21.6666 26.5625C21.6666 26.5625 22.0387 26.5884 22.5207 26.5027C22.6065 26.4865 22.5482 26.7453 22.1519 26.8537C21.7556 26.9621 21.4385 26.9605 21.2121 27.0203C20.9856 27.0802 21.4272 26.6822 21.4272 26.6822L21.6666 26.5625Z" fill="#6F8C93"/>
<path d="M8.38063 15.7117C8.70578 16.4542 9.45798 17.7354 9.79445 18.2336C9.9368 18.4423 10.2539 18.5782 10.5774 18.6623C11.0255 18.782 11.48 18.8095 11.48 18.8095C11.48 18.8095 12.2646 21.9057 12.4846 22.4508C12.5703 22.666 12.8308 23.1577 13.1721 23.7288C13.185 23.7514 13.1963 23.7724 13.206 23.7886C13.7302 24.6573 14.4306 25.6893 14.9952 26.2005C15.9479 27.0611 18.7481 29.0977 19.4922 29.1915C19.2576 29.067 18.9907 28.7823 18.8775 28.3957C18.7594 27.9912 19.0069 27.5739 19.4113 27.4607C19.4647 27.4461 19.5213 27.4332 19.5795 27.4235C20.2347 27.3037 20.7782 27.1274 21.3007 26.998C21.8232 26.8702 21.8992 26.6276 22.0125 26.516C22.1241 26.4043 22.5722 25.9692 22.6061 25.932C22.6401 25.8948 22.3295 26.1018 21.8361 26.1957C21.3266 26.2927 21.1697 26.317 20.5178 26.3558C20.5081 26.3526 20.4984 26.351 20.4887 26.3493C20.3884 26.2798 20.0357 25.9013 20.8801 25.7751C20.8817 25.7735 20.8801 25.7718 20.8801 25.7702C21.0176 25.7298 21.1292 25.6149 21.2603 25.589C21.4204 25.5551 22.0384 25.4726 22.2567 25.4402C22.4751 25.4079 22.7663 25.2849 22.9895 25.1458C23.2111 25.0067 23.4231 24.8093 23.415 24.7527C23.4069 24.6961 23.2872 24.8013 22.9475 24.8611C22.6078 24.9226 22.1791 24.7835 21.7795 24.8336C21.38 24.8838 21.3832 24.9032 21.1503 24.9776C21.0726 25.0018 21.0225 24.9986 20.9804 24.9808C21.1098 24.4082 21.3185 24.1057 21.3185 24.1057C22.1483 23.9132 22.1807 23.3648 22.3231 22.8892C22.4638 22.412 22.2745 21.3444 22.205 20.7426C22.1354 20.1408 22.2486 19.9419 22.6838 19.827C23.1189 19.7138 24.2189 20.1182 25.361 19.7364C25.6085 19.6539 25.8172 19.5876 25.9741 19.4841C26.076 19.0829 26.1617 18.6429 26.2264 18.2401C26.2992 17.7807 26.3413 17.3666 26.3397 17.0997C26.338 16.8991 26.3429 16.7163 26.3494 16.5626L25.7654 16.1631L22.3732 15.9576C22.3732 15.9576 19.159 15.3154 17.7241 15.0647C16.2893 14.814 14.0974 13.1268 13.3888 12.8065C12.7402 12.5121 10.7197 11.2891 10.1067 11.0352C9.91739 12.1853 10.0241 13.0475 10.0241 13.0475C10.0241 13.0475 9.31563 12.5493 8.64592 12.6479C8.64592 12.6479 8.64431 12.6479 8.64107 12.6479C8.48092 12.6722 8.32401 12.7288 8.18004 12.8356C7.42137 13.3872 8.05549 14.9693 8.38063 15.7117Z" fill="#324A54"/>
<path d="M20.3902 26.252C20.3902 26.252 20.4776 26.3442 20.7154 26.3442C20.9532 26.3442 20.4937 26.5156 20.4937 26.5156C20.4937 26.5156 20.3223 26.5027 20.3126 26.4865C20.3029 26.4703 20.2705 26.3636 20.2705 26.3636L20.3902 26.252Z" fill="#1A2B33"/>
<path d="M24.6074 23.5348C24.7093 23.2258 24.8064 22.912 24.8905 22.624C25.1105 21.8815 25.7915 20.1021 25.7915 20.1021C25.8546 19.9145 25.9161 19.7042 25.9711 19.481C26.0067 19.3354 26.0423 19.1833 26.0746 19.0312C26.0746 19.0312 25.8951 19.6185 25.358 19.7333C25.358 19.7333 25.4405 19.9824 25.3499 20.5357C25.2577 21.0873 24.9892 21.4318 24.7514 22.0805C24.5136 22.7259 24.677 23.3212 24.6074 23.5283C24.6074 23.5315 24.6074 23.5331 24.6074 23.5348Z" fill="white"/>
<path d="M24.6787 19.4576C24.9327 19.456 25.2287 19.3072 25.2287 19.3072C25.2983 19.5094 25.3597 19.7326 25.3597 19.7326C25.6137 19.676 25.8159 19.5838 25.9728 19.4803C26.0747 19.0791 26.1605 18.6391 26.2252 18.2363L25.2319 18.3852C25.2319 18.3852 25.3161 18.4531 25.4293 18.5809C25.5441 18.7087 25.7852 18.7669 25.7852 18.7669C25.6736 18.8996 25.4406 18.9416 25.4406 18.9416C25.1802 19.3104 24.6787 19.4576 24.6787 19.4576Z" fill="white"/>
<path d="M20.7541 23.1739C20.8301 23.3146 21.241 23.5961 21.6195 23.6026C21.7781 23.6042 21.9398 23.7045 21.7926 23.8517C21.6454 23.9989 21.317 24.1024 21.317 24.1024C21.5597 24.1057 21.9851 23.897 22.1614 23.656C22.3378 23.4165 22.595 23.1885 22.7163 23.1464C22.8505 23.0995 22.9298 23.1836 22.9185 23.2807C23.0058 23.2192 23.1401 22.8795 23.0964 22.5948C23.0625 22.3699 22.8958 22.2373 22.7939 22.1516C22.7292 22.281 22.7745 22.4266 22.7535 22.4751C22.7308 22.522 22.5464 21.6905 22.5464 21.6905C22.4461 21.3686 22.3523 20.8963 22.2876 20.3463C22.2731 20.2217 22.2585 20.0939 22.2472 19.9629C22.1242 20.0664 22.087 20.1926 22.0773 20.2767L22.0757 20.2945C22.0757 20.3172 22.0757 20.3382 22.0741 20.3592C22.0789 21.1049 22.2181 21.7245 22.0692 22.0286C21.8314 22.5107 21.2167 22.7193 20.987 22.6999C20.7169 22.6757 20.5551 22.8067 20.7541 23.1739Z" fill="white"/>
<path d="M11.2618 31.6653C8.95179 28.5676 8.73826 26.4436 8.71885 26.0295V26.0279C8.71561 25.9793 8.71723 25.9551 8.71723 25.9551C5.61136 28.113 3.66535 31.3499 3.67829 31.6637H11.2618V31.6653Z" fill="#1A2B33"/>
<path d="M4.27535 31.6653C4.23652 31.6459 4.20094 31.6265 4.17182 31.6087C4.08123 31.5537 4.04726 31.4373 4.09255 31.3418C5.50961 28.3832 8.71738 26.0295 8.71738 26.0295V26.0279C8.71415 25.9793 8.71576 25.9551 8.71576 25.9551C5.6099 28.113 3.66388 31.3499 3.67682 31.6637H4.27535V31.6653Z" fill="#CDFC3E"/>
<path d="M11.48 18.8105C11.48 18.8105 12.2645 21.9067 12.4845 22.4519C12.5703 22.667 12.8307 23.1588 13.172 23.7298C12.986 23.3804 12.5638 22.3419 12.3907 21.7304C12.2403 21.1998 11.8537 19.621 11.6676 18.8316L11.48 18.8105Z" fill="#7D9BA5"/>
<path d="M22.6533 27.889C22.9866 27.2355 23.302 26.3684 23.3974 26.1371C23.5123 25.854 23.7776 25.5483 24.0105 25.0938C24.0105 25.0938 23.8164 25.3267 23.5786 25.5435C23.4201 25.6874 23.2308 25.7586 23.1127 25.9835C22.8183 26.5448 22.951 27.098 22.6533 27.889Z" fill="white"/>
<path d="M8.3806 15.7119C8.70574 16.4544 9.45794 17.7356 9.79441 18.2338C9.93676 18.4425 10.2538 18.5784 10.5773 18.6625C10.5515 18.6528 10.139 18.4959 9.90926 18.1173C9.67309 17.7259 8.27545 15.5809 8.05545 13.8468C7.93251 12.8713 8.58442 12.6594 8.63942 12.6465C8.47927 12.6707 8.32236 12.7274 8.17839 12.8341C7.42134 13.3874 8.05545 14.9694 8.3806 15.7119Z" fill="#7D9BA5"/>
<path d="M23.3262 24.7148C23.3262 24.7148 23.1499 24.8038 22.9024 24.8265C22.6549 24.8491 22.1389 24.7779 21.9205 24.7812C21.7021 24.7844 21.5112 24.8426 21.5112 24.8426C21.5112 24.8426 21.673 24.7343 21.9253 24.7229C22.1793 24.7084 22.9234 24.8701 23.3262 24.7148Z" fill="white"/>
<path d="M28.0108 29.5491C27.9525 29.7319 27.2796 30.7801 27.5514 31.0438C27.7325 31.2201 28.3893 31.4239 28.8681 31.6666H29.3194C28.8228 31.3657 27.8716 31.0551 27.828 30.9111C27.7697 30.7203 28.3311 29.6089 28.3909 29.4262C28.4216 29.3307 26.914 28.3763 25.4517 27.4785C25.6247 27.6031 28.069 29.3728 28.0108 29.5491Z" fill="#CDFC3E"/>
<path d="M33.8685 31.6663C33.8556 31.6388 33.8442 31.6097 33.8313 31.5822C33.0662 29.8416 31.9953 29.4355 31.9953 29.4355L31.6006 31.6679H33.8685V31.6663Z" fill="#324A54"/>
<path d="M26.0419 26.8688C26.0419 26.8688 26.3784 26.301 26.2473 25.6749C26.1163 25.0489 25.707 23.9053 26.325 23.1094C26.325 23.1094 25.5954 23.4847 25.6925 24.5264C25.7491 25.1363 26.0387 25.5617 26.1147 26.0405C26.1584 26.3188 26.105 26.6666 26.0419 26.8688Z" fill="white"/>
<path d="M26.3573 25.6767C26.3573 25.6767 26.2263 25.1946 26.2409 24.9439C26.2554 24.6932 26.4188 24.3276 26.6065 24.051C26.8378 23.7113 26.6647 23.2891 26.6647 23.2891C26.6647 23.2891 27.0109 23.7048 26.8362 24.1513C26.7051 24.4829 26.2021 24.8032 26.3573 25.6767Z" fill="white"/>
<path d="M26.3218 24.2033C26.3218 24.2033 25.9627 23.8005 26.1827 23.1955C26.3105 22.8461 26.3444 22.3026 26.2425 22.0098C26.2425 22.0098 26.4318 22.2039 26.4447 22.7264C26.4577 23.2489 26.1406 23.5676 26.3218 24.2033Z" fill="white"/>
</g>
<path d="M31.6636 15.9915C30.0476 17.3422 26.7799 18.7188 23.5075 18.494C16.144 17.9876 14.6056 15.0435 12.095 13.8449C10.2412 12.96 6.61608 12.3712 5.42065 10.6468C4.56007 9.40769 5.36403 7.72373 6.85873 7.52314C7.75814 7.40344 9.08136 7.57814 10.9497 8.58593C16.6244 11.6433 19.5879 11.0609 23.5269 11.4281C27.4658 11.7953 37.4289 11.1709 31.6636 15.9915Z" fill="#1A2B33"/>
<path d="M11.0759 8.84552C11.0759 8.84552 8.77404 7.54332 7.04155 7.76332C6.30876 7.85714 5.68435 8.37317 5.52259 9.09302C5.50803 9.15772 5.4967 9.22566 5.49023 9.29522C5.49023 9.29522 5.75553 8.68375 6.59023 8.47993C8.3389 8.05288 10.9692 9.74169 10.9692 9.74169" fill="#304249"/>
<path d="M27.3739 11.8965C27.3739 11.8965 32.4775 12.0032 32.9094 13.3766C33.3931 14.9166 29.8246 16.9694 28.6227 17.3673C27.5469 17.7248 24.9603 18.5288 21.924 18.1697C18.8877 17.8106 12.9947 13.5902 11.3544 12.8169C11.3544 12.8169 11.2169 12.6632 16.1992 14.3003C19.352 15.3372 25.0558 15.0638 27.3512 14.1709C27.2509 13.341 27.4046 13.0078 27.3739 11.8965Z" fill="#324A54"/>
<path d="M27.3509 14.1732C27.3509 14.1732 27.4755 12.6834 27.5693 10.9007C27.5968 10.3523 27.6211 9.77647 27.6405 9.20868C27.6647 8.3675 27.6534 6.82751 27.6146 5.90384C27.6017 5.62722 27.5871 5.40723 27.5709 5.2762C27.524 4.9009 27.4383 4.45929 27.2781 4.03061C27.27 4.0112 27.2652 3.99503 27.2603 3.9837C27.2571 3.974 27.2522 3.96429 27.249 3.95459C26.987 3.29135 26.547 2.66695 25.8045 2.36607C24.7158 1.92607 23.1111 2.26739 21.6601 2.58768H21.6552C21.0308 2.72518 20.4355 2.85783 19.9211 2.92092C18.407 1.77724 17.1372 -0.173628 15.788 0.0124005C13.5201 0.322987 11.0678 4.92355 10.4337 9.52735C10.1926 11.276 20.979 15.5417 27.3509 14.1732Z" fill="#1A2B33"/>
<path d="M19.3196 3.15522C20.4342 3.99154 22.2217 4.35551 23.2974 4.41212C23.9089 4.44448 24.6837 4.5755 25.41 4.73565C25.7918 4.7955 26.3903 4.71947 26.0215 3.91227C25.6527 3.10345 25.0817 2.69581 24.3424 2.51463C23.6403 2.34478 21.8415 2.56155 21.6587 2.58419C23.1098 2.26552 24.7128 1.92258 25.8031 2.36258C26.5456 2.66346 26.9856 3.28786 27.2477 3.9511C27.2509 3.9608 27.2558 3.97051 27.259 3.98021C27.2638 3.99315 27.2687 4.00933 27.2768 4.02713C27.4369 4.4558 27.5227 4.89741 27.5696 5.27271C27.5712 5.2905 27.5744 5.30991 27.5761 5.32932C27.5761 5.33256 27.5761 5.33579 27.5777 5.33903C27.5906 5.47329 27.6036 5.66579 27.6133 5.90035C27.6133 5.90035 27.6133 5.90035 27.6116 5.90035C27.6505 6.82402 27.6634 8.36401 27.6391 9.20519C27.6213 9.77298 27.5955 10.3505 27.568 10.8972C26.7122 11.0881 24.7112 11.2887 24.7112 11.2887C24.7112 11.2887 25.19 6.60564 24.3893 5.92462C23.5886 5.24521 23.3023 5.46359 21.3012 4.933C19.3018 4.40403 18.0821 2.77022 17.0646 1.62655C16.0504 0.48288 15.1396 0.476409 15.1396 0.476409C16.5858 -0.130206 18.2051 2.31728 19.3196 3.15522Z" fill="#324A54"/>
<path d="M27.5887 10.4928C27.5887 10.4928 27.6502 10.4847 27.634 10.5284C27.6178 10.5704 27.6081 11.6187 27.5822 12.0295C27.5563 12.4404 27.4124 14.0451 27.4107 14.0597C27.4091 14.0742 27.4544 14.1357 27.3493 14.1745C27.3493 14.1745 21.4772 15.8585 17.3345 11.6057C22.4446 11.5459 25.9888 10.8357 27.0435 10.6125C27.2765 10.5623 27.4641 10.5203 27.5887 10.4928Z" fill="#CDFC3E"/>
<path d="M27.0903 10.7092L27.5611 10.5879L27.3006 14.1467L27.0903 10.7092Z" fill="white"/>
<path d="M26.4756 4.19922C26.5985 5.0598 26.7182 5.92847 26.8363 6.80038C26.9948 7.97317 27.1453 9.13625 27.2876 10.2912C27.354 9.54552 27.3782 8.91464 27.3879 8.43096C27.4009 7.76126 27.3847 7.31479 27.375 7.077C27.3491 6.5173 27.3087 6.17274 27.2747 5.93818C27.1598 5.13907 27.0256 4.88186 26.9576 4.76539C26.8007 4.49686 26.6115 4.31245 26.4756 4.19922Z" fill="white"/>
<path d="M31.3447 12.7525C31.377 12.6894 31.7135 12.7509 31.9853 12.9337C32.0662 12.9887 32.4722 13.2621 32.4835 13.6811C32.4965 14.0919 32.1276 14.5158 31.5744 14.6306C31.6666 14.5562 32.147 14.1631 32.0726 13.7409C32.0419 13.5597 31.9141 13.4044 31.7491 13.2022C31.5048 12.903 31.3188 12.8027 31.3447 12.7525Z" fill="white"/>
<path d="M27.3413 28.3438C28.7729 28.719 30.2029 29.0943 31.6345 29.4696C31.0781 29.5085 30.2256 29.502 29.242 29.2205C28.4106 28.9811 27.7716 28.6268 27.3413 28.3438Z" fill="white"/>
<path d="M21.8381 25.4554C21.9092 25.3907 21.9788 25.3244 22.0467 25.2565C22.0483 25.2548 22.0483 25.2565 22.05 25.2548C22.071 25.2419 22.0936 25.2257 22.1114 25.2095C22.1131 25.2079 22.1131 25.2079 22.1131 25.2079C22.1325 25.1982 22.1519 25.1885 22.1713 25.1772C22.1794 25.1756 22.1858 25.174 22.1939 25.1707C22.2182 25.1643 22.2457 25.1562 22.2748 25.1497C22.3039 25.1432 22.3331 25.1335 22.3638 25.127C22.3945 25.119 22.4269 25.1109 22.4592 25.1028C22.4754 25.0995 22.4916 25.0947 22.5094 25.0898C22.6679 25.1788 23.1176 25.4635 23.5657 26.0426C24.1222 26.7625 24.9649 27.7719 24.9649 27.7719C24.9649 27.7719 24.9989 27.4532 25.0199 27.3497C25.041 27.2462 25.3467 27.0165 26.107 26.9922C26.5292 26.9776 26.7864 27.0456 26.932 27.107C27.0291 27.1491 27.1002 27.2365 27.1213 27.34C27.1941 27.6959 27.3445 28.3009 27.3235 29.0466C27.3089 29.5594 27.152 29.8635 26.3885 29.9961C25.701 30.1142 25.1558 29.9638 24.7207 29.3038C24.2839 28.6438 23.412 27.3238 23.1289 26.8741C22.8458 26.4244 22.4608 25.7773 22.1357 25.5994C21.9804 25.5153 21.8542 25.5153 21.7588 25.5088C21.7863 25.4943 21.8138 25.4765 21.8381 25.4554ZM26.8851 27.2785C26.8835 27.272 26.8851 27.2704 26.8802 27.2575C26.8786 27.2526 26.877 27.2462 26.8738 27.2429L26.8673 27.2332C26.8624 27.2267 26.8592 27.2219 26.8544 27.2154C26.8349 27.196 26.8155 27.1831 26.7961 27.1734C26.7767 27.1637 26.7589 27.1556 26.7395 27.1507C26.7023 27.1378 26.6667 27.1297 26.6311 27.1232C26.5616 27.1103 26.4952 27.1054 26.4354 27.1022C26.3141 27.0973 26.2138 27.1038 26.1442 27.1103C26.1086 27.1135 26.0827 27.1167 26.0633 27.12C26.0455 27.1232 26.0342 27.1248 26.0342 27.1248C26.0342 27.1248 26.0747 27.1281 26.1442 27.1313C26.2138 27.1362 26.3124 27.1442 26.4289 27.162C26.4872 27.1717 26.5502 27.1831 26.6133 27.1992C26.6457 27.2073 26.678 27.217 26.7071 27.23C26.7217 27.2364 26.7363 27.2429 26.7508 27.251C26.7638 27.2591 26.7767 27.2672 26.7816 27.2753C26.7832 27.2769 26.7848 27.2785 26.7848 27.2801C26.7848 27.2801 26.7848 27.2801 26.7848 27.2817C26.7848 27.2817 26.7848 27.2834 26.7848 27.285C26.7848 27.2866 26.7783 27.2963 26.7686 27.3044C26.746 27.3222 26.7136 27.3384 26.6813 27.3513C26.6133 27.3772 26.5389 27.3982 26.4629 27.4128C26.3869 27.4289 26.3092 27.4403 26.2332 27.45C26.1571 27.4597 26.0811 27.4662 26.0067 27.471C25.9339 27.4759 25.8627 27.4775 25.7948 27.4775C25.7269 27.4775 25.6638 27.4759 25.6055 27.471C25.4891 27.4629 25.3904 27.4467 25.3273 27.4225C25.2966 27.4095 25.2739 27.395 25.2626 27.3804C25.2513 27.3659 25.2513 27.3545 25.2513 27.3545C25.2513 27.3545 25.2497 27.3642 25.2577 27.3837C25.2658 27.4015 25.2869 27.4225 25.3176 27.4403C25.3483 27.4597 25.3888 27.4759 25.4357 27.492C25.4826 27.5066 25.5376 27.5212 25.5974 27.5309C25.6573 27.5422 25.722 27.5503 25.7916 27.5551C25.8611 27.56 25.9339 27.5632 26.0099 27.5632C26.086 27.5632 26.1636 27.5584 26.2429 27.5519C26.3221 27.5438 26.403 27.5325 26.4823 27.5163C26.5616 27.5001 26.6424 27.4791 26.7185 27.4451C26.7573 27.4289 26.7961 27.4095 26.8317 27.3772C26.8495 27.361 26.8689 27.3384 26.877 27.3028C26.8786 27.2979 26.8786 27.2947 26.8786 27.2898V27.2834V27.2801C26.8851 27.2817 26.8851 27.2882 26.8851 27.2785ZM26.471 29.8991C26.5357 29.891 26.6263 29.8764 26.733 29.8408C26.7864 29.8231 26.843 29.8004 26.8996 29.7697C26.9563 29.7389 27.0145 29.7001 27.0663 29.65C27.0921 29.6241 27.1164 29.5982 27.1391 29.5675C27.1585 29.54 27.1811 29.5044 27.1957 29.4688C27.2264 29.3992 27.2442 29.3248 27.2571 29.2504C27.2685 29.176 27.2766 29.1016 27.2798 29.0288C27.2846 28.956 27.2846 28.8848 27.283 28.8153C27.283 28.7457 27.2782 28.6794 27.2749 28.6163C27.2717 28.5532 27.2652 28.4934 27.2604 28.4384C27.2377 28.2184 27.207 28.0744 27.207 28.0744C27.207 28.0744 27.2086 28.1116 27.2119 28.1747C27.2151 28.2394 27.2199 28.33 27.2232 28.44C27.2248 28.495 27.2264 28.5548 27.2264 28.6179C27.228 28.681 27.2264 28.7473 27.2264 28.8153C27.2248 28.8832 27.2216 28.9544 27.2167 29.0256C27.2119 29.0967 27.2038 29.1695 27.1924 29.2391C27.1811 29.3103 27.1649 29.3798 27.1374 29.4429C27.1342 29.451 27.131 29.4591 27.1277 29.4656L27.1164 29.4882C27.1148 29.4914 27.1116 29.4963 27.1116 29.4979L27.1051 29.5092C27.1002 29.5173 27.0954 29.5254 27.0905 29.5319C27.0727 29.5578 27.0501 29.5853 27.0274 29.6079C26.9805 29.6548 26.9304 29.6953 26.877 29.726C26.8252 29.7583 26.7719 29.7842 26.7217 29.8053C26.6214 29.8473 26.5324 29.87 26.471 29.8845C26.4079 29.8991 26.3723 29.9039 26.3723 29.9039C26.3723 29.9039 26.4063 29.9072 26.471 29.8991ZM26.0617 27.6603C26.128 27.657 26.1976 27.6506 26.2623 27.6441C26.3286 27.6376 26.3933 27.6263 26.4548 27.615C26.5794 27.5907 26.6942 27.56 26.7896 27.5212C26.8835 27.4823 26.9595 27.437 26.9983 27.3917C27.0177 27.3691 27.0274 27.3465 27.0307 27.3303C27.0323 27.3222 27.0323 27.3157 27.0323 27.3125C27.0323 27.3173 27.0307 27.3222 27.0291 27.3303C27.0242 27.3448 27.0129 27.3642 26.9919 27.3837C26.9498 27.4225 26.8738 27.4581 26.7799 27.4872C26.6861 27.5163 26.5713 27.5406 26.4483 27.56C26.3869 27.5697 26.3238 27.5762 26.2574 27.5826C26.1927 27.5891 26.1264 27.5939 26.0601 27.5972C25.9938 27.6004 25.9274 27.602 25.8627 27.602C25.798 27.602 25.7333 27.6004 25.6719 27.5972C25.6104 27.5939 25.5505 27.5891 25.4939 27.5826C25.4373 27.5762 25.3839 27.5681 25.3354 27.5567C25.2383 27.5357 25.1607 27.5082 25.1138 27.4742C25.0911 27.4564 25.0766 27.4387 25.0717 27.4241C25.0685 27.4176 25.0669 27.4112 25.0669 27.4079C25.0652 27.4047 25.0652 27.4015 25.0652 27.4015C25.0652 27.4015 25.0652 27.4031 25.0652 27.4079C25.0652 27.4128 25.0652 27.4176 25.0685 27.4257C25.0733 27.4419 25.0847 27.4629 25.1057 27.4839C25.1494 27.526 25.2286 27.5648 25.3257 27.5939C25.3742 27.6085 25.4276 27.6214 25.4858 27.6312C25.5424 27.6409 25.6039 27.6506 25.667 27.6554C25.7301 27.6603 25.7964 27.6651 25.8627 27.6667C25.9258 27.6635 25.9938 27.6635 26.0617 27.6603ZM25.5602 27.8819C25.3904 28.8961 25.7042 28.7134 25.7544 28.3995C25.8045 28.0841 25.591 27.7007 25.5602 27.8819ZM25.0151 29.3604C25.083 29.8506 25.6816 29.9379 25.6816 29.9379C25.6816 29.9379 25.2723 29.7551 25.1882 29.2763C25.0604 28.5581 25.0426 27.6748 25.0426 27.6748C25.0426 27.6748 24.9261 28.715 25.0151 29.3604ZM24.5622 28.0323C24.7417 28.0307 24.9439 27.9369 24.9439 27.9369C24.9439 27.9369 24.7175 27.9288 24.5654 27.801C24.4748 27.725 24.1642 27.2575 23.9669 27.0391C23.8326 26.8903 23.776 26.9534 23.776 26.9534C23.776 26.9534 24.3826 28.0323 24.5622 28.0323ZM23.3683 27.1394C23.3683 27.1394 23.3748 27.1265 23.3829 27.1054C23.3878 27.0941 23.3942 27.0828 23.4007 27.0682C23.4039 27.0601 23.4088 27.0537 23.412 27.0456C23.4169 27.0375 23.4201 27.0294 23.425 27.0213C23.4298 27.0132 23.4347 27.0051 23.4411 26.997C23.4476 26.989 23.4525 26.9809 23.4589 26.9712C23.4654 26.9631 23.4719 26.955 23.48 26.9453C23.488 26.9372 23.4945 26.9291 23.5026 26.921C23.5107 26.9129 23.5188 26.9048 23.5285 26.8967C23.5382 26.8903 23.5463 26.8806 23.556 26.8741C23.5754 26.8595 23.5948 26.8466 23.6158 26.8337C23.6579 26.8094 23.7032 26.79 23.7485 26.7738C23.7938 26.7576 23.8358 26.7463 23.8747 26.735C23.9119 26.7253 23.9458 26.7172 23.9685 26.7123C23.9911 26.7075 24.0057 26.7042 24.0057 26.7042C24.0057 26.7042 23.9927 26.6994 23.9685 26.6945C23.9442 26.6897 23.9103 26.6848 23.8698 26.6832C23.8278 26.6832 23.7792 26.6865 23.7291 26.6962C23.7032 26.7026 23.6773 26.7091 23.6514 26.7188C23.6255 26.7285 23.5997 26.7415 23.5738 26.7544C23.5495 26.769 23.5253 26.7851 23.5042 26.8045C23.4816 26.8223 23.4638 26.8434 23.446 26.866C23.4379 26.8773 23.4298 26.8887 23.4233 26.8984C23.4169 26.9097 23.4104 26.921 23.4055 26.9323C23.4007 26.9437 23.3958 26.955 23.391 26.9647C23.3878 26.976 23.3845 26.9857 23.3813 26.997C23.3748 27.0181 23.3716 27.0359 23.37 27.0537C23.3683 27.0698 23.3667 27.0844 23.3667 27.0973C23.3667 27.1265 23.3683 27.1394 23.3683 27.1394ZM22.8475 25.7644C23.1936 26.0216 23.5026 26.6541 23.5835 26.6719C23.6627 26.6897 23.6369 26.5991 23.6272 26.5829C23.1014 25.6803 22.5013 25.5056 22.8475 25.7644Z" fill="white"/>
<path d="M23.4329 27.1407C23.4361 27.1343 23.4377 27.1262 23.4426 27.1181C23.4474 27.11 23.4523 27.1003 23.4572 27.0906C23.462 27.0809 23.4701 27.0712 23.4782 27.0598C23.4847 27.0485 23.4944 27.0388 23.5041 27.0291C23.5122 27.0178 23.5235 27.0081 23.5332 26.9984C23.5429 26.9887 23.5558 26.979 23.5672 26.9693C23.5785 26.9595 23.5898 26.9498 23.6027 26.9418C23.6157 26.9337 23.627 26.924 23.6383 26.9175C23.6497 26.9094 23.661 26.9029 23.6723 26.8948C23.6836 26.8884 23.6949 26.8819 23.7047 26.8754C23.7241 26.8641 23.7419 26.8544 23.7532 26.8495C23.7645 26.8431 23.7726 26.8398 23.7726 26.8398C23.7726 26.8398 23.7645 26.8415 23.7516 26.8447C23.7386 26.8479 23.7208 26.8544 23.6982 26.8641C23.6869 26.869 23.6755 26.8738 23.6642 26.8803C23.6529 26.8868 23.64 26.8932 23.627 26.8997C23.6141 26.9062 23.6011 26.9159 23.5898 26.924C23.5769 26.932 23.5655 26.9434 23.5526 26.9515C23.5413 26.9628 23.5299 26.9725 23.5186 26.9838C23.5089 26.9951 23.4976 27.0065 23.4895 27.0178C23.4814 27.0291 23.4717 27.0404 23.4652 27.0518C23.4588 27.0631 23.4523 27.0744 23.4474 27.0857C23.4426 27.097 23.4394 27.1068 23.4361 27.1148C23.4329 27.1245 23.4313 27.1326 23.4297 27.1391C23.4264 27.152 23.4248 27.1601 23.4248 27.1601C23.4248 27.1601 23.428 27.152 23.4329 27.1407Z" fill="white"/>
<path d="M42.3248 33H102.753C103.735 33 104.539 31.8092 104.539 30.3538V2.64618C104.539 1.19078 103.735 0 102.753 0H42.3248C41.3426 0 40.5391 1.19078 40.5391 2.64618V30.356C40.5391 31.8092 41.3426 33 42.3248 33Z" fill="#1C1E1E" stroke="url(#paint0_linear_1584_150)" stroke-width="0.361236" stroke-miterlimit="10"/>
<rect width="51.8534" height="25.3277" transform="translate(46.8242 4.33789)" fill="#1C1E1E"/>
<path d="M48.6691 6.09598H46.8242V4.33789H52.6508V6.09729H50.8151V13.6951H48.6691V6.09598Z" fill="white"/>
<path d="M53.4648 4.33789H55.6148V7.87511H57.2361V4.33789H59.3966V13.6951H57.2361V9.68316H55.6148V13.6951H53.4648V4.33789Z" fill="white"/>
<path d="M65.7502 9.72919H62.9165V11.9593H66.1236L65.8725 13.6951H60.8086V4.33789H65.879V6.09729H62.9165V7.9803H65.7502V9.72919Z" fill="white"/>
<path d="M75.0994 10.697C75.0994 9.24266 75.1217 7.30836 75.1493 6.17882H75.0889C74.814 8.13021 74.4235 11.294 74.0027 13.6951H72.2657C71.9382 11.198 71.549 8.04868 71.2926 6.15647H71.2229C71.2689 7.25577 71.3097 9.14798 71.3097 10.768V13.6951H69.4175V4.33789H72.4445C72.7522 6.29059 73.0586 8.63909 73.2006 9.95141H73.244C73.4228 8.55757 73.7752 6.52597 74.1276 4.33789H77.1244V13.6951H75.1007V10.697H75.0994Z" fill="white"/>
<path d="M83.4587 9.72919H80.625V11.9593H83.8321L83.581 13.6951H78.5171V4.33789H83.5875V6.09729H80.625V7.9803H83.4587V9.72919Z" fill="white"/>
<path d="M90.4529 10.697C90.4529 9.24266 90.4753 7.30836 90.5029 6.17882H90.4424C90.1676 8.13021 89.777 11.294 89.3562 13.6951H87.6192C87.2918 11.198 86.9025 8.04868 86.6461 6.15647H86.5764C86.6224 7.25577 86.6632 9.14798 86.6632 10.768V13.6951H84.771V4.33789H87.798C88.1057 6.29059 88.4121 8.63909 88.5541 9.95141H88.5975C88.7763 8.55757 89.1287 6.52597 89.4811 4.33789H92.4779V13.6951H90.4542V10.697H90.4529Z" fill="white"/>
<path d="M98.8107 9.72919H95.977V11.9593H99.1842L98.933 13.6951H93.8691V4.33789H98.9396V6.09729H95.977V7.9803H98.8107V9.72919Z" fill="white"/>
<path d="M46.8242 15.6953H99.0739" stroke="url(#paint1_linear_1584_150)" stroke-width="0.207236" stroke-miterlimit="10"/>
<path d="M53.8155 20.5111V28.6953H51.9552V23.1701L51.2121 28.6953H49.8927L49.1091 23.2964V28.6953H47.2488V20.5111H50.0039C50.0848 21.0031 50.1707 21.5828 50.2617 22.25L50.5549 24.3327L51.0402 20.5111H53.8155ZM64.9707 20.5111L66.189 28.6953H64.0102L63.9041 27.2243H63.1407L63.0144 28.6953H60.8103L61.8921 20.5111H64.9707ZM63.8434 25.7735C63.7356 24.8467 63.6277 23.7025 63.5199 22.341C63.3042 23.9047 63.1694 25.0489 63.1155 25.7735H63.8434ZM73.1788 20.5111H76.7831V22.1489H75.307V23.7009H76.6213V25.2578H75.307V28.6953H73.1788V20.5111ZM86.0578 20.5111V28.6953H83.9296V20.5111H86.0578ZM97.2131 20.5111L98.4313 28.6953H96.2526L96.1464 27.2243H95.3831L95.2567 28.6953H93.0527L94.1345 20.5111H97.2131ZM96.0858 25.7735C95.9779 24.8467 95.8701 23.7025 95.7622 22.341C95.5465 23.9047 95.4117 25.0489 95.3578 25.7735H96.0858Z" fill="#CDFC3E"/>
<g opacity="0.8">
<path d="M108.004 33.0005C108.888 33.0005 109.604 32.2842 109.604 31.4006C109.604 30.5171 108.888 29.8008 108.004 29.8008C107.121 29.8008 106.404 30.5171 106.404 31.4006C106.404 32.2842 107.121 33.0005 108.004 33.0005Z" stroke="white" stroke-width="0.199924"/>
<path d="M107.613 32.3203H107.369V30.5215H108.048C108.241 30.5215 108.391 30.57 108.498 30.6655C108.608 30.7593 108.663 30.8919 108.663 31.0618C108.663 31.1863 108.632 31.2915 108.571 31.3772C108.511 31.463 108.425 31.5244 108.315 31.5616L108.681 32.3203H108.409L108.072 31.6085H107.611V32.3203H107.613ZM107.613 30.7399V31.3918H108.051C108.165 31.3918 108.252 31.3627 108.313 31.3044C108.376 31.2462 108.407 31.1653 108.407 31.0634C108.407 30.9582 108.375 30.879 108.31 30.824C108.247 30.7674 108.16 30.7399 108.048 30.7399H107.613Z" fill="white"/>
</g>
</g>
<defs>
<linearGradient id="paint0_linear_1584_150" x1="104.712" y1="16.4998" x2="40.3672" y2="16.4998" gradientUnits="userSpaceOnUse">
<stop stop-color="#B3B3B3"/>
<stop offset="1" stop-color="#4D4D4D"/>
</linearGradient>
<linearGradient id="paint1_linear_1584_150" x1="-nan" y1="-nan" x2="-nan" y2="-nan" gradientUnits="userSpaceOnUse">
<stop stop-color="#B3B3B3"/>
<stop offset="1" stop-color="#4D4D4D"/>
</linearGradient>
<clipPath id="clip0_1584_150">
<rect width="109.604" height="33" fill="white"/>
</clipPath>
</defs>
</svg>
