<svg width="48" height="48" viewBox="0 0 48 48" fill="none" xmlns="http://www.w3.org/2000/svg">
<rect width="48" height="48" rx="10" fill="#393939"/>
<path d="M34.0875 21.273H33.4888V16.9423C33.4888 15.8714 32.6196 15 31.5513 15H13.9375C12.8692 15 12 15.8714 12 16.9423V19.5731C12 19.7876 12.1733 19.9616 12.3875 19.9616C12.6017 19.9616 12.775 19.7876 12.775 19.5731V16.9423C12.775 16.2997 13.2965 15.7769 13.9375 15.7769H31.5513C32.1924 15.7769 32.7138 16.2997 32.7138 16.9423V21.6615C32.7138 21.876 32.8872 22.0499 33.1013 22.0499H34.0875C34.3013 22.0499 34.475 22.2242 34.475 22.4384V25.5616C34.475 25.7758 34.3013 25.9501 34.0875 25.9501H29.7368C28.6644 25.9501 27.7918 25.0753 27.7918 24C27.7918 22.9247 28.6644 22.0499 29.7368 22.0499H31.1332C31.3474 22.0499 31.5207 21.876 31.5207 21.6615C31.5207 21.4469 31.3474 21.273 31.1332 21.273H29.7368C28.2372 21.273 27.0168 22.4962 27.0168 24C27.0168 25.5038 28.2372 26.727 29.7368 26.727H32.7138V31.0577C32.7138 31.7003 32.1924 32.2231 31.5513 32.2231H13.9375C13.2965 32.2231 12.775 31.7003 12.775 31.0577V27.1077H14.3027L15.0311 28.822C15.0921 28.9652 15.2324 29.0581 15.3876 29.0581H17.2601C17.4362 29.7222 18.0352 30.2153 18.7525 30.2153C19.6073 30.2153 20.3025 29.5183 20.3025 28.6615C20.3025 27.8047 19.6073 27.1077 18.7525 27.1077C18.0293 27.1077 17.4253 27.6087 17.255 28.2812H15.6438L14.9153 26.5669C14.8544 26.4237 14.714 26.3308 14.5589 26.3308H12.775V24.3885H17.2575C17.4308 25.0567 18.0322 25.5538 18.7525 25.5538C19.6073 25.5538 20.3025 24.8568 20.3025 24C20.3025 23.1432 19.6073 22.4462 18.7525 22.4462C18.0322 22.4462 17.4308 22.9433 17.2575 23.6115H12.775V21.6692H14.5589C14.714 21.6692 14.8544 21.5763 14.9153 21.4331L15.6438 19.7188H17.255C17.4254 20.3913 18.0293 20.8923 18.7525 20.8923C19.6073 20.8923 20.3025 20.1953 20.3025 19.3385C20.3025 18.4817 19.6073 17.7847 18.7525 17.7847C18.0352 17.7847 17.4362 18.2778 17.2601 18.9419H15.3876C15.2324 18.9419 15.0921 19.0348 15.0311 19.178L14.3027 20.8923H12.3875C12.1733 20.8923 12 21.0663 12 21.2808V31.0577C12 32.1286 12.8692 33 13.9375 33H31.5513C32.6196 33 33.4888 32.1286 33.4888 31.0577V26.727H34.0875C34.7285 26.727 35.25 26.2042 35.25 25.5616V22.4384C35.25 21.7958 34.7285 21.273 34.0875 21.273ZM18.7525 27.8846C19.1797 27.8846 19.5275 28.233 19.5275 28.6615C19.5275 29.09 19.1797 29.4384 18.7525 29.4384C18.3253 29.4384 17.9775 29.09 17.9775 28.6615C17.9775 28.233 18.3253 27.8846 18.7525 27.8846ZM18.7525 23.2231C19.1797 23.2231 19.5275 23.5715 19.5275 24C19.5275 24.4285 19.1797 24.7769 18.7525 24.7769C18.3253 24.7769 17.9775 24.4285 17.9775 24C17.9775 23.5715 18.3253 23.2231 18.7525 23.2231ZM18.7525 18.5616C19.1797 18.5616 19.5275 18.91 19.5275 19.3385C19.5275 19.767 19.1797 20.1154 18.7525 20.1154C18.3253 20.1154 17.9775 19.767 17.9775 19.3385C17.9775 18.91 18.3253 18.5616 18.7525 18.5616Z" fill="#8D8D8D"/>
<path d="M29.25 24C29.25 24.8271 30.0909 25.5 31.125 25.5C32.1591 25.5 33 24.8271 33 24C33 23.1729 32.1591 22.5 31.125 22.5C30.0909 22.5 29.25 23.1729 29.25 24ZM32.0625 24C32.0625 24.4136 31.6418 24.75 31.125 24.75C30.6082 24.75 30.1875 24.4136 30.1875 24C30.1875 23.5864 30.6082 23.25 31.125 23.25C31.6418 23.25 32.0625 23.5864 32.0625 24Z" fill="#8D8D8D"/>
</svg>
