<svg width="48" height="48" viewBox="0 0 48 48" fill="none" xmlns="http://www.w3.org/2000/svg">
<rect width="48" height="48" rx="10" fill="url(#paint0_linear_1537_67)"/>
<path d="M30.4081 20.9203V15.2988C30.4078 15.0525 30.3098 14.8163 30.1356 14.642C29.9614 14.4678 29.7252 14.3698 29.4788 14.3696H28.498V13.639C28.4977 13.3926 28.3997 13.1564 28.2255 12.9822C28.0513 12.808 27.8151 12.71 27.5687 12.7097H14.549C14.5013 12.7097 14.4541 12.7203 14.4109 12.7406C14.3677 12.761 14.3295 12.7906 14.2991 12.8275L11.8988 15.7355C11.8879 15.7489 11.8781 15.7631 11.8694 15.7781C11.8684 15.7798 11.8673 15.7815 11.8663 15.7832C11.8583 15.7976 11.8514 15.8126 11.8457 15.8281C11.8448 15.8306 11.8438 15.8332 11.843 15.8355C11.8376 15.8509 11.8334 15.8667 11.8305 15.8827C11.83 15.8854 11.8297 15.8881 11.8292 15.8908C11.8265 15.9071 11.8251 15.9237 11.825 15.9402V15.9415V32.7011C11.8252 32.9475 11.9232 33.1837 12.0974 33.3579C12.2717 33.5322 12.5079 33.6302 12.7542 33.6304H13.735V34.361C13.7353 34.6073 13.8333 34.8436 14.0075 35.0178C14.1817 35.192 14.4179 35.29 14.6643 35.2903H29.4788C29.7252 35.29 29.9614 35.192 30.1356 35.0178C30.3098 34.8436 30.4078 34.6073 30.4081 34.361V34.3268C32.0715 33.8539 33.5322 32.8448 34.5632 31.4563C35.6031 30.0667 36.1682 28.3794 36.1751 26.6437V22.5823L30.4081 20.9203ZM29.4788 15.0176C29.5534 15.0177 29.6248 15.0473 29.6776 15.1001C29.7303 15.1528 29.7599 15.2243 29.76 15.2988V20.9576L28.498 21.3213V15.0176H29.4788ZM14.2977 13.8474V15.3366C14.2976 15.4112 14.2679 15.4826 14.2152 15.5353C14.1624 15.588 14.091 15.6176 14.0164 15.6177H12.8366L14.2977 13.8474ZM12.473 32.7011V16.2659H14.0164C14.2628 16.2657 14.499 16.1677 14.6732 15.9934C14.8474 15.8192 14.9454 15.583 14.9457 15.3366V13.3578H27.5687C27.6433 13.3579 27.7147 13.3875 27.7674 13.4403C27.8202 13.493 27.8498 13.5645 27.8499 13.639V21.5081L24.1225 22.5823V23.2936H14.4168C14.3315 23.2947 14.2501 23.3293 14.1902 23.3899C14.1303 23.4506 14.0967 23.5324 14.0967 23.6177C14.0967 23.7029 14.1303 23.7847 14.1902 23.8454C14.2501 23.906 14.3315 23.9406 14.4168 23.9417H24.1223V25.5682H14.4168C14.3315 25.5693 14.2501 25.6039 14.1902 25.6646C14.1303 25.7252 14.0967 25.8071 14.0967 25.8923C14.0967 25.9776 14.1303 26.0594 14.1902 26.12C14.2501 26.1807 14.3315 26.2153 14.4168 26.2164H24.1223V26.6437C24.1226 27.0452 24.1538 27.4462 24.2155 27.843H14.4168C14.3308 27.843 14.2484 27.8771 14.1876 27.9379C14.1269 27.9987 14.0927 28.0811 14.0927 28.167C14.0927 28.253 14.1269 28.3354 14.1876 28.3961C14.2484 28.4569 14.3308 28.4911 14.4168 28.4911H24.3432C24.4782 29.0523 24.6725 29.5975 24.9228 30.1177H14.4168C14.3315 30.1187 14.2501 30.1534 14.1902 30.214C14.1303 30.2747 14.0967 30.3565 14.0967 30.4417C14.0967 30.527 14.1303 30.6088 14.1902 30.6695C14.2501 30.7301 14.3315 30.7647 14.4168 30.7658H25.2714C25.7818 31.6193 26.446 32.3708 27.2303 32.9823H12.7542C12.6797 32.9822 12.6082 32.9525 12.5555 32.8998C12.5028 32.8471 12.4731 32.7757 12.473 32.7011ZM29.4788 34.642H14.6643C14.5897 34.642 14.5183 34.6123 14.4656 34.5596C14.4129 34.5069 14.3832 34.4355 14.3831 34.3609V33.6304H27.5687C27.7242 33.6306 27.8773 33.5915 28.0136 33.5167C28.5623 33.8438 29.1488 34.103 29.76 34.2886V34.3611C29.7598 34.4356 29.7302 34.507 29.6775 34.5597C29.6248 34.6123 29.5533 34.642 29.4788 34.642ZM35.5268 26.6437C35.5268 29.9546 33.3196 32.8549 30.1486 33.7265C28.2991 33.2168 26.7242 32.0002 25.7639 30.3394C25.7505 30.299 25.7292 30.2617 25.7013 30.2296C25.338 29.5778 25.076 28.8746 24.9244 28.144C24.9225 28.1165 24.9171 28.0893 24.9083 28.0632C24.8166 27.5956 24.7705 27.1201 24.7705 26.6435V23.07L28.2691 22.0617L28.2709 22.0612L30.1488 21.52L35.527 23.07L35.5268 26.6437ZM17.325 19.0683C17.325 19.0257 17.3333 18.9836 17.3496 18.9443C17.3659 18.905 17.3898 18.8692 17.4199 18.8391C17.45 18.8091 17.4857 18.7852 17.525 18.7689C17.5644 18.7526 17.6065 18.7442 17.6491 18.7443H25.9061C25.9913 18.7453 26.0727 18.7799 26.1326 18.8406C26.1925 18.9012 26.2261 18.9831 26.2261 19.0683C26.2261 19.1536 26.1925 19.2354 26.1326 19.296C26.0727 19.3567 25.9913 19.3913 25.9061 19.3924H17.6491C17.5631 19.3924 17.4807 19.3582 17.4199 19.2975C17.3591 19.2367 17.325 19.1542 17.325 19.0683ZM14.0926 21.343C14.0926 21.3004 14.101 21.2583 14.1172 21.219C14.1335 21.1796 14.1574 21.1439 14.1875 21.1138C14.2176 21.0837 14.2533 21.0599 14.2926 21.0436C14.3319 21.0273 14.3741 21.0189 14.4166 21.0189H25.9062C25.9914 21.02 26.0728 21.0546 26.1327 21.1152C26.1926 21.1759 26.2262 21.2577 26.2262 21.343C26.2262 21.4282 26.1926 21.51 26.1327 21.5707C26.0728 21.6313 25.9914 21.666 25.9062 21.667H14.4168C14.3742 21.667 14.3321 21.6587 14.2927 21.6424C14.2534 21.6261 14.2177 21.6023 14.1875 21.5722C14.1574 21.5421 14.1336 21.5063 14.1173 21.467C14.101 21.4277 14.0926 21.3856 14.0926 21.343ZM26.7204 27.2966C26.7204 27.9747 26.9215 28.6375 27.2982 29.2013C27.6749 29.7651 28.2103 30.2046 28.8368 30.464C29.4632 30.7235 30.1525 30.7914 30.8176 30.6592C31.4826 30.5269 32.0935 30.2004 32.5729 29.7209C33.0524 29.2414 33.3789 28.6306 33.5112 27.9655C33.6435 27.3005 33.5756 26.6112 33.3161 25.9847C33.0567 25.3583 32.6172 24.8228 32.0534 24.4461C31.4897 24.0694 30.8268 23.8683 30.1488 23.8683C29.2398 23.8694 28.3684 24.2309 27.7257 24.8736C27.083 25.5163 26.7215 26.3877 26.7204 27.2966ZM30.1488 24.5164C30.6986 24.5164 31.2362 24.6795 31.6934 24.9849C32.1506 25.2904 32.507 25.7247 32.7174 26.2327C32.9279 26.7407 32.9829 27.2998 32.8757 27.8391C32.7684 28.3784 32.5036 28.8738 32.1148 29.2626C31.7259 29.6515 31.2305 29.9163 30.6912 30.0235C30.1519 30.1308 29.5928 30.0757 29.0848 29.8653C28.5768 29.6549 28.1426 29.2985 27.8371 28.8413C27.5316 28.3841 27.3685 27.8465 27.3685 27.2966C27.3694 26.5595 27.6625 25.8528 28.1838 25.3316C28.705 24.8104 29.4116 24.5172 30.1488 24.5164ZM28.5898 27.1853C28.6144 27.1506 28.6456 27.121 28.6817 27.0984C28.7177 27.0757 28.7579 27.0604 28.7999 27.0533C28.8418 27.0462 28.8848 27.0474 28.9263 27.0569C28.9678 27.0663 29.007 27.0839 29.0417 27.1085L29.898 27.7162L31.1996 26.2301C31.2565 26.1663 31.3362 26.1277 31.4215 26.1224C31.5067 26.1172 31.5906 26.1458 31.6549 26.2021C31.7191 26.2583 31.7586 26.3377 31.7646 26.4229C31.7706 26.5081 31.7428 26.5923 31.6871 26.657L30.1927 28.3633C30.1399 28.4236 30.0665 28.4622 29.9869 28.4716C29.9072 28.481 29.8269 28.4605 29.7614 28.4141L28.6666 27.6371C28.6319 27.6125 28.6024 27.5813 28.5797 27.5452C28.5571 27.5092 28.5418 27.469 28.5346 27.4271C28.5275 27.3851 28.5287 27.3422 28.5382 27.3007C28.5477 27.2592 28.5652 27.22 28.5899 27.1853H28.5898Z" fill="white"/>
<defs>
<linearGradient id="paint0_linear_1537_67" x1="-10.2145" y1="-33.1268" x2="51.2669" y2="55.4561" gradientUnits="userSpaceOnUse">
<stop stop-color="#CDFF3A"/>
<stop offset="0.764573" stop-color="#547000"/>
</linearGradient>
</defs>
</svg>
