<svg width="48" height="48" viewBox="0 0 48 48" fill="none" xmlns="http://www.w3.org/2000/svg">
<rect width="48" height="48" rx="10" fill="url(#paint0_linear_1537_92)"/>
<path fill-rule="evenodd" clip-rule="evenodd" d="M24.5951 16.5072C24.8673 16.1949 25.3411 16.1625 25.6533 16.4347L31.4929 21.5256C31.7286 21.7311 31.8121 22.0613 31.7023 22.3541C31.5926 22.6469 31.3127 22.8409 31 22.8409H17C16.5858 22.8409 16.25 22.5051 16.25 22.0909C16.25 21.6767 16.5858 21.3409 17 21.3409H28.9984L24.6676 17.5653C24.3554 17.2931 24.3229 16.8194 24.5951 16.5072Z" fill="white"/>
<path fill-rule="evenodd" clip-rule="evenodd" d="M23.4049 31.493C23.1327 31.8052 22.659 31.8376 22.3468 31.5654L16.5072 26.4745C16.2715 26.269 16.188 25.9389 16.2977 25.646C16.4074 25.3532 16.6873 25.1592 17 25.1592H31C31.4142 25.1592 31.75 25.495 31.75 25.9092C31.75 26.3234 31.4142 26.6592 31 26.6592H19.0016L23.3325 30.4348C23.6447 30.707 23.6771 31.1807 23.4049 31.493Z" fill="white"/>
<defs>
<linearGradient id="paint0_linear_1537_92" x1="-10.2145" y1="-33.1268" x2="51.2669" y2="55.4561" gradientUnits="userSpaceOnUse">
<stop stop-color="#CDFF3A"/>
<stop offset="0.764573" stop-color="#547000"/>
</linearGradient>
</defs>
</svg>
