<svg width="48" height="48" viewBox="0 0 48 48" fill="none" xmlns="http://www.w3.org/2000/svg">
<rect width="48" height="48" rx="10" fill="#393939"/>
<path d="M24.2309 17C23.9336 17 23.6925 17.2411 23.6925 17.5385V20.2308H22.0771C21.7797 20.2308 21.5386 20.4719 21.5386 20.7692V34.7692C21.5386 35.0666 21.7797 35.3077 22.0771 35.3077H23.6925V37.4615C23.6925 37.7589 23.9336 38 24.2309 38C24.5283 38 24.7694 37.7589 24.7694 37.4615V35.3077H26.3848C26.6821 35.3077 26.9232 35.0666 26.9232 34.7692V20.7692C26.9232 20.4719 26.6821 20.2308 26.3848 20.2308H24.7694V17.5385C24.7694 17.2411 24.5283 17 24.2309 17ZM25.8463 21.3077V34.2308H22.6155V21.3077H25.8463Z" fill="#8D8D8D"/>
<path d="M31.7693 14.8462C31.4719 14.8462 31.2308 15.0873 31.2308 15.3847V18.077H29.6155C29.3181 18.077 29.077 18.3181 29.077 18.6154V32.6154C29.077 32.9128 29.3181 33.1539 29.6155 33.1539H31.2308V35.3077C31.2308 35.6051 31.4719 35.8462 31.7693 35.8462C32.0667 35.8462 32.3078 35.6051 32.3078 35.3077V33.1539H33.9232C34.2205 33.1539 34.4616 32.9128 34.4616 32.6154V18.6154C34.4616 18.3181 34.2205 18.077 33.9232 18.077H32.3078V15.3847C32.3078 15.0873 32.0667 14.8462 31.7693 14.8462ZM33.3847 19.1539V32.077H30.1539V19.1539H33.3847Z" fill="#8D8D8D"/>
<path d="M16.6923 10C16.3949 10 16.1538 10.2411 16.1538 10.5385V13.2308H14.5385C14.2411 13.2308 14 13.4719 14 13.7692V27.7692C14 28.0666 14.2411 28.3077 14.5385 28.3077H16.1538V30.4615C16.1538 30.7589 16.3949 31 16.6923 31C16.9897 31 17.2308 30.7589 17.2308 30.4615V28.3077H18.8462C19.1435 28.3077 19.3846 28.0666 19.3846 27.7692V13.7692C19.3846 13.4719 19.1435 13.2308 18.8462 13.2308H17.2308V10.5385C17.2308 10.2411 16.9897 10 16.6923 10ZM18.3077 14.3077V27.2308H15.0769V14.3077H18.3077Z" fill="#8D8D8D"/>
</svg>
