<svg width="65" height="60" viewBox="0 0 65 60" fill="none" xmlns="http://www.w3.org/2000/svg">
<path d="M2.64097 58.9999H58.1723C59.0749 58.9999 59.8133 57.9255 59.8133 56.6122V31.6106C59.8133 30.2974 59.0749 29.2229 58.1723 29.2229H2.64097C1.73843 29.2229 0.999977 30.2974 0.999977 31.6106V56.6142C0.999977 57.9255 1.73843 58.9999 2.64097 58.9999Z" fill="url(#paint0_linear_1302_1801)" stroke="url(#paint1_linear_1302_1801)" stroke-width="0.330822" stroke-miterlimit="10"/>
<path d="M8.49747 34.5913H6.80792V32.9812H12.1439V34.5925H10.4628V41.5506H8.49747V34.5913Z" fill="white"/>
<path d="M12.8892 32.9807H14.8581V36.2201H16.3429V32.9807H18.3215V41.5501H16.3429V37.876H14.8581V41.5501H12.8892V32.9807Z" fill="white"/>
<path d="M24.1407 37.9181H21.5456V39.9605H24.4827L24.2527 41.5501H19.6152V32.9807H24.2587V34.592H21.5456V36.3165H24.1407V37.9181Z" fill="white"/>
<path d="M32.7028 38.8044C32.7028 37.4725 32.7233 35.7011 32.7486 34.6666H32.6932C32.4415 36.4537 32.0839 39.3511 31.6985 41.5501H30.1077C29.8078 39.2632 29.4514 36.3791 29.2166 34.6462H29.1527C29.1949 35.6529 29.2322 37.3858 29.2322 38.8694V41.5501H27.4993V32.9807H30.2715C30.5533 34.769 30.8339 36.9198 30.9639 38.1216H31.0037C31.1674 36.8451 31.4902 34.9846 31.8129 32.9807H34.5574V41.5501H32.704V38.8044H32.7028Z" fill="white"/>
<path d="M40.3577 37.9181H37.7626V39.9605H40.6997L40.4697 41.5501H35.8322V32.9807H40.4758V34.592H37.7626V36.3165H40.3577V37.9181Z" fill="white"/>
<path d="M46.7638 38.8044C46.7638 37.4725 46.7843 35.7011 46.8096 34.6666H46.7542C46.5025 36.4537 46.1449 39.3511 45.7595 41.5501H44.1687C43.8688 39.2632 43.5124 36.3791 43.2776 34.6462H43.2137C43.2559 35.6529 43.2932 37.3858 43.2932 38.8694V41.5501H41.5603V32.9807H44.3325C44.6143 34.769 44.8949 36.9198 45.0249 38.1216H45.0647C45.2284 36.8451 45.5512 34.9846 45.8739 32.9807H48.6184V41.5501H46.765V38.8044H46.7638Z" fill="white"/>
<path d="M54.4179 37.9181H51.8228V39.9605H54.7599L54.5299 41.5501H49.8924V32.9807H54.5359V34.592H51.8228V36.3165H54.4179V37.9181Z" fill="white"/>
<path d="M6.80795 42.917H54.6586" stroke="url(#paint2_linear_1302_1801)" stroke-width="0.189788" stroke-miterlimit="10"/>
<path d="M13.2106 46.7883V54.2834H11.5069V49.2234L10.8264 54.2834H9.61806L8.90049 49.3391V54.2834H7.19682V46.7883H9.71991C9.79398 47.2389 9.87268 47.7697 9.95602 48.3808L10.2245 50.2882L10.669 46.7883H13.2106ZM23.4266 46.7883L24.5423 54.2834H22.547L22.4498 52.9363H21.7507L21.635 54.2834H19.6165L20.6072 46.7883H23.4266ZM22.3942 51.6076C22.2955 50.7588 22.1967 49.711 22.0979 48.4641C21.9004 49.8962 21.777 50.944 21.7276 51.6076H22.3942ZM30.9436 46.7883H34.2445V48.2882H32.8927V49.7095H34.0963V51.1354H32.8927V54.2834H30.9436V46.7883ZM42.7384 46.7883V54.2834H40.7893V46.7883H42.7384ZM52.9544 46.7883L54.0701 54.2834H52.0748L51.9776 52.9363H51.2785L51.1628 54.2834H49.1443L50.135 46.7883H52.9544ZM51.922 51.6076C51.8233 50.7588 51.7245 49.711 51.6257 48.4641C51.4282 49.8962 51.3047 50.944 51.2554 51.6076H51.922Z" fill="#CDFC3E"/>
<g opacity="0.8">
<path d="M62.9868 59.0001C63.7959 59.0001 64.4519 58.3442 64.4519 57.535C64.4519 56.7258 63.7959 56.0698 62.9868 56.0698C62.1776 56.0698 61.5216 56.7258 61.5216 57.535C61.5216 58.3442 62.1776 59.0001 62.9868 59.0001Z" stroke="white" stroke-width="0.183092"/>
<path d="M62.6283 58.3764H62.4046V56.729H63.0268C63.2031 56.729 63.3409 56.7734 63.4386 56.8609C63.5394 56.9468 63.5897 57.0683 63.5897 57.2238C63.5897 57.3379 63.5616 57.4342 63.5053 57.5127C63.4505 57.5912 63.372 57.6475 63.2712 57.6816L63.606 58.3764H63.3572L63.049 57.7245H62.6268V58.3764H62.6283ZM62.6283 56.929V57.526H63.0297C63.1335 57.526 63.2134 57.4994 63.2697 57.446C63.3275 57.3927 63.3557 57.3186 63.3557 57.2253C63.3557 57.129 63.326 57.0564 63.2668 57.006C63.209 56.9542 63.129 56.929 63.0268 56.929H62.6283Z" fill="white"/>
</g>
<mask id="mask0_1302_1801" style="mask-type:luminance" maskUnits="userSpaceOnUse" x="15" y="3" width="34" height="35">
<path d="M31.8095 37.3493C41.05 37.3493 48.541 29.8584 48.541 20.6179C48.541 11.3774 41.05 3.88647 31.8095 3.88647C22.569 3.88647 15.0781 11.3774 15.0781 20.6179C15.0781 29.8584 22.569 37.3493 31.8095 37.3493Z" fill="white"/>
</mask>
<g mask="url(#mask0_1302_1801)">
<path d="M34.5191 28.9992C34.2687 28.8407 34.1072 28.74 34.1072 28.74C34.1072 28.74 33.7487 28.8511 33.328 28.9992H34.5191Z" fill="white"/>
<path d="M21.4957 28.9988C20.5475 28.0314 19.869 27.3425 19.869 27.3425C19.869 27.3425 18.6987 28.2358 17.7357 28.9988H21.4957Z" fill="#324A54"/>
<path d="M26.8776 38.154C26.6139 38.0962 26.3739 38.0043 26.1665 37.8754C24.8036 37.7969 23.451 37.6325 22.1681 37.2621C21.4022 37.0414 21.0881 36.3303 21.1459 35.637C21.0407 35.6414 20.9355 35.6474 20.8289 35.6503C19.9993 35.6814 18.8941 35.7777 17.9134 35.6133L18.4956 39.4858L27.0865 38.1954C27.0169 38.1821 26.9473 38.1688 26.8776 38.154Z" fill="#324A54"/>
<path d="M44.6879 28.9988L44.3797 26.9544L37.6525 25.0981L38.6702 28.9988H44.6879Z" fill="#324A54"/>
<path d="M41.9306 28.9987C41.4758 28.7231 40.6048 28.4387 40.5648 28.3068C40.5114 28.132 41.0255 27.1143 41.0803 26.9469C41.1084 26.8595 39.7277 25.9854 38.3885 25.1632C38.3811 25.1588 38.3796 25.1573 38.3796 25.1573C37.1337 24.3914 35.9249 23.6714 35.9249 23.6714L35.3708 25.0802C35.3708 25.0802 35.996 27.0254 36.4463 28.9987H41.9306Z" fill="#324A54"/>
<path d="M34.9337 28.9991C34.824 28.4939 33.8804 28.3457 33.35 28.7472C33.2256 28.842 33.107 28.925 32.9989 28.9991H34.9337Z" fill="#6F8C93"/>
<path d="M33.3531 28.9992C33.4479 28.9874 33.5457 28.9859 33.642 28.9992H36.4538C36.0923 27.423 35.5975 25.626 35.5975 25.626L33.1664 26.34L32.685 28.6852L32.6835 28.6866L32.6198 28.9992H33.3531Z" fill="white"/>
<path d="M33.353 28.9986C33.4478 28.9868 33.5456 28.9853 33.6419 28.9986H33.8745C33.8182 28.9512 33.7663 28.9097 33.7337 28.8964C33.6389 28.8579 33.633 28.846 33.6641 28.646C33.6967 28.4445 33.6567 27.7142 33.7575 27.1927C33.8567 26.6713 34.0878 26.4935 34.0878 26.4935L33.9871 26.4431L33.2819 26.5661C33.2819 26.5661 33.196 26.7083 33.1086 27.1305C33.0212 27.5512 32.7412 28.526 32.7308 28.5734C32.7278 28.5853 32.7116 28.6282 32.6864 28.6845L32.6849 28.686L32.6212 28.9986H33.353Z" fill="#C1C1C1"/>
<path d="M29.4686 28.999H32.91C33.0063 28.8967 33.0981 28.7782 33.1811 28.6375C33.1811 28.6375 33.187 26.8509 33.4685 26.3072C33.75 25.7635 27.3457 16.7385 27.3457 16.7385L25.0243 16.8644L24.8702 16.8733C24.8702 16.8733 25.1265 20.2066 24.8672 22.7799C24.8658 22.7813 24.8658 22.7813 24.8658 22.7813C24.8213 23.2184 24.7635 23.6346 24.685 24.008C24.685 24.0065 26.3902 27.5634 29.4686 28.999Z" fill="#324A54"/>
<path d="M31.8598 28.9992H32.9101C33.0064 28.8969 33.0982 28.7784 33.1812 28.6377C33.1812 28.6377 33.1871 26.8511 33.4686 26.3074L32.6316 26.6407C32.6316 26.6407 32.4138 27.1814 32.1605 27.3888C31.9072 27.5947 31.8701 27.8229 31.8746 27.9118C31.879 27.9992 31.919 28.2066 31.8746 28.3207C31.8494 28.3814 31.8924 28.7088 31.8598 28.9992Z" fill="#7D9BA5"/>
<path d="M24.8659 22.7796C24.8748 22.7456 24.8837 22.7011 24.8925 22.6448C25.0999 21.2819 25.1014 16.9383 25.1014 16.9383L25.0229 16.8657L24.8688 16.8746C24.8688 16.8731 25.1251 20.2064 24.8659 22.7796Z" fill="#7D9BA5"/>
<path d="M25.343 28.9986H29.5592C26.86 27.7512 24.9297 24.4387 24.7074 24.0446C24.7 24.0328 24.6926 24.0194 24.6852 24.0061C24.8408 23.4639 24.9148 22.5158 24.9504 21.7262C24.983 20.9884 24.9815 20.3899 24.9815 20.3899C24.9815 20.3899 24.4467 20.9247 24.0082 21.5573C23.586 22.1647 23.0067 23.4298 23.0616 23.7706C23.0986 24.0135 23.1964 26.1468 25.343 28.9986Z" fill="white"/>
<path d="M24.6853 24.0063C24.8408 23.4641 24.9149 22.5159 24.9505 21.7263C24.8601 21.8819 24.746 22.0715 24.6127 22.2863C24.2483 22.8744 24.3431 23.3796 24.6853 24.0063Z" fill="#C1C1C1"/>
<path d="M22.7534 14.3889C23.0512 15.0688 23.7401 16.2421 24.0482 16.6984C24.3578 17.1547 25.5919 17.2258 25.5919 17.2258C25.5919 17.2258 26.3104 20.0613 26.5119 20.5605C26.7119 21.0598 27.9415 23.2049 28.8126 23.9945C29.6851 24.7827 32.2495 26.6478 32.931 26.7337C33.6124 26.8182 35.0391 26.5634 35.445 26.1367C35.565 26.0108 35.6968 25.7945 35.8242 25.5426C35.8242 25.5426 35.8242 25.5412 35.8257 25.5412C36.1309 24.9427 36.4198 24.1486 36.5072 23.9368C36.6124 23.6775 36.8553 23.3975 37.0686 22.9812C37.1027 22.9146 37.1368 22.8435 37.1694 22.7694C37.3116 22.442 37.4686 22.0035 37.6168 21.5561C37.6168 21.5546 37.6168 21.5546 37.6168 21.5516C37.7101 21.2687 37.799 20.9813 37.876 20.7176C38.0775 20.0376 38.7012 18.408 38.7012 18.408C38.759 18.2362 38.8153 18.0436 38.8656 17.8391C38.8982 17.7058 38.9308 17.5666 38.9605 17.4273C39.1071 16.7473 39.2034 16.0362 39.2004 15.6555C39.199 15.4718 39.2034 15.3044 39.2093 15.1636C39.2212 14.86 39.2419 14.6733 39.2419 14.6733C39.2419 14.6733 40.3678 5.35352 32.5236 4.85872C26.2704 4.46317 24.6986 7.87346 24.3341 10.103C24.1608 11.1563 24.2586 11.9459 24.2586 11.9459C24.2586 11.9459 23.2601 11.2437 22.5697 11.7534C21.8749 12.26 22.4557 13.7089 22.7534 14.3889Z" fill="#7D9BA5"/>
<path d="M35.1634 21.7871C35.1634 21.7871 34.8701 22.5841 34.7753 22.5249C34.6805 22.4656 34.8197 21.8923 34.8197 21.8923L35.1634 21.7871Z" fill="#6F8C93"/>
<path d="M35.2952 18.6441C35.2967 18.6501 35.2967 18.653 35.2967 18.653L35.4908 18.6545C35.4893 18.6471 35.4893 18.6397 35.4893 18.6338C35.4508 18.2264 36.0063 18.136 36.0419 18.1316C35.7412 18.1271 35.5604 18.1938 35.4523 18.2827C35.3397 18.3775 35.3056 18.493 35.2967 18.5701L35.2952 18.5864C35.2938 18.613 35.2952 18.6338 35.2952 18.6441Z" fill="white"/>
<path d="M34.9206 24.3262C34.9206 24.3262 35.2613 24.3499 35.7028 24.2714C35.7813 24.2566 35.728 24.4936 35.365 24.5929C35.0021 24.6921 34.7117 24.6907 34.5043 24.7455C34.2969 24.8003 34.7013 24.4359 34.7013 24.4359L34.9206 24.3262Z" fill="#6F8C93"/>
<path d="M22.7534 14.3891C23.0512 15.069 23.7401 16.2423 24.0482 16.6986C24.1786 16.8897 24.469 17.0142 24.7652 17.0912C25.1756 17.2008 25.5919 17.226 25.5919 17.226C25.5919 17.226 26.3104 20.0615 26.5119 20.5608C26.5904 20.7578 26.8289 21.2081 27.1415 21.7311C27.1533 21.7518 27.1637 21.7711 27.1726 21.7859C27.6526 22.5814 28.294 23.5266 28.8111 23.9947C29.6836 24.7829 32.248 26.648 32.9295 26.7339C32.7147 26.6199 32.4702 26.3591 32.3665 26.0051C32.2584 25.6347 32.4851 25.2525 32.8554 25.1488C32.9043 25.1355 32.9562 25.1236 33.0095 25.1147C33.6095 25.0051 34.1072 24.8436 34.5857 24.7251C35.0643 24.6081 35.1339 24.3858 35.2376 24.2836C35.3398 24.1814 35.7502 23.7829 35.7813 23.7488C35.8124 23.7148 35.5279 23.9044 35.0761 23.9903C34.6094 24.0792 34.4657 24.1014 33.8687 24.137C33.8598 24.134 33.8509 24.1325 33.8421 24.131C33.7502 24.0673 33.4273 23.7207 34.2006 23.6051C34.202 23.6036 34.2006 23.6022 34.2006 23.6007C34.3265 23.5636 34.4287 23.4585 34.5487 23.4348C34.6954 23.4037 35.2613 23.3281 35.4613 23.2985C35.6613 23.2688 35.9279 23.1562 36.1324 23.0288C36.3353 22.9014 36.5294 22.7207 36.522 22.6689C36.5146 22.617 36.405 22.7133 36.0939 22.7681C35.7828 22.8244 35.3902 22.697 35.0243 22.7429C34.6583 22.7889 34.6613 22.8066 34.448 22.8748C34.3769 22.897 34.3309 22.894 34.2924 22.8777C34.4109 22.3533 34.602 22.0763 34.602 22.0763C35.362 21.9 35.3917 21.3978 35.522 20.9622C35.6509 20.5252 35.4776 19.5474 35.4139 18.9964C35.3502 18.4453 35.4539 18.263 35.8524 18.1579C36.2509 18.0542 37.2583 18.4245 38.3042 18.0749C38.5308 17.9993 38.7219 17.9386 38.8656 17.8438C38.959 17.4764 39.0375 17.0734 39.0967 16.7046C39.1634 16.2838 39.2019 15.9046 39.2004 15.6601C39.199 15.4764 39.2034 15.309 39.2093 15.1683L38.6745 14.8024L35.5679 14.6142C35.5679 14.6142 32.6243 14.0261 31.3103 13.7965C29.9962 13.5669 27.9889 12.0217 27.34 11.7284C26.7459 11.4588 24.8956 10.3388 24.3341 10.1062C24.1608 11.1595 24.2586 11.9491 24.2586 11.9491C24.2586 11.9491 23.6097 11.4928 22.9964 11.5832C22.9964 11.5832 22.9949 11.5832 22.992 11.5832C22.8453 11.6054 22.7016 11.6573 22.5697 11.7551C21.8749 12.2602 22.4557 13.7091 22.7534 14.3891Z" fill="#324A54"/>
<path d="M33.7517 24.0417C33.7517 24.0417 33.8317 24.1262 34.0495 24.1262C34.2673 24.1262 33.8465 24.2832 33.8465 24.2832C33.8465 24.2832 33.6895 24.2714 33.6806 24.2566C33.6717 24.2417 33.6421 24.144 33.6421 24.144L33.7517 24.0417Z" fill="#1A2B33"/>
<path d="M37.6137 21.5531C37.707 21.2701 37.7959 20.9827 37.8729 20.719C38.0744 20.039 38.6981 18.4094 38.6981 18.4094C38.7559 18.2376 38.8122 18.045 38.8625 17.8406C38.8951 17.7072 38.9277 17.568 38.9573 17.4287C38.9573 17.4287 38.7929 17.9665 38.3011 18.0717C38.3011 18.0717 38.3766 18.2998 38.2937 18.8065C38.2092 19.3116 37.9633 19.6272 37.7455 20.2212C37.5278 20.8123 37.6774 21.3575 37.6137 21.5471C37.6137 21.5501 37.6137 21.5516 37.6137 21.5531Z" fill="white"/>
<path d="M37.6791 17.8184C37.9117 17.817 38.1828 17.6807 38.1828 17.6807C38.2465 17.8658 38.3028 18.0703 38.3028 18.0703C38.5354 18.0184 38.7206 17.934 38.8643 17.8392C38.9576 17.4718 39.0361 17.0688 39.0954 16.7L38.1857 16.8362C38.1857 16.8362 38.2628 16.8985 38.3665 17.0155C38.4717 17.1325 38.6924 17.1859 38.6924 17.1859C38.5902 17.3073 38.3769 17.3459 38.3769 17.3459C38.1383 17.6836 37.6791 17.8184 37.6791 17.8184Z" fill="white"/>
<path d="M34.0851 21.2229C34.1547 21.3518 34.531 21.6096 34.8777 21.6155C35.0229 21.617 35.171 21.7088 35.0362 21.8436C34.9014 21.9784 34.6006 22.0732 34.6006 22.0732C34.8229 22.0762 35.2125 21.8851 35.374 21.6644C35.5354 21.4451 35.771 21.2362 35.8821 21.1977C36.0051 21.1547 36.0776 21.2318 36.0673 21.3207C36.1473 21.2644 36.2702 20.9533 36.2302 20.6925C36.1991 20.4866 36.0465 20.3651 35.9532 20.2866C35.8939 20.4051 35.9354 20.5385 35.9162 20.5829C35.8954 20.6259 35.7265 19.8644 35.7265 19.8644C35.6347 19.5696 35.5488 19.137 35.4895 18.6333C35.4762 18.5193 35.4628 18.4022 35.4525 18.2822C35.3399 18.377 35.3058 18.4926 35.2969 18.5696L35.2954 18.5859C35.2954 18.6067 35.2954 18.6259 35.294 18.6452C35.2984 19.3281 35.4258 19.8955 35.2895 20.174C35.0717 20.6155 34.5088 20.8066 34.2984 20.7888C34.051 20.7666 33.9029 20.8866 34.0851 21.2229Z" fill="white"/>
<path d="M25.3918 28.999C23.2763 26.1621 23.0808 24.2169 23.063 23.8377V23.8362C23.06 23.7918 23.0615 23.7695 23.0615 23.7695C20.2171 25.7458 18.435 28.7102 18.4468 28.9976H25.3918V28.999Z" fill="#1A2B33"/>
<path d="M18.9936 28.999C18.958 28.9813 18.9254 28.9635 18.8987 28.9472C18.8158 28.8968 18.7847 28.7901 18.8261 28.7027C20.1239 25.9932 23.0616 23.8377 23.0616 23.8377V23.8362C23.0586 23.7918 23.0601 23.7695 23.0601 23.7695C20.2157 25.7458 18.4336 28.7102 18.4454 28.9976H18.9936V28.999Z" fill="#CDFC3E"/>
<path d="M25.5921 17.2261C25.5921 17.2261 26.3106 20.0616 26.5121 20.5608C26.5906 20.7578 26.8291 21.2082 27.1417 21.7311C26.9713 21.4112 26.5847 20.4601 26.4261 19.9001C26.2884 19.4142 25.9343 17.9683 25.7639 17.2453L25.5921 17.2261Z" fill="#7D9BA5"/>
<path d="M35.8243 25.5411C36.1295 24.9426 36.4184 24.1486 36.5058 23.9367C36.611 23.6775 36.8539 23.3975 37.0673 22.9812C37.0673 22.9812 36.8895 23.1945 36.6717 23.393C36.5265 23.5249 36.3532 23.5901 36.2451 23.796C35.9755 24.3101 36.0969 24.8167 35.8243 25.5411Z" fill="white"/>
<path d="M22.7535 14.3889C23.0512 15.0689 23.7401 16.2422 24.0482 16.6985C24.1786 16.8896 24.469 17.014 24.7653 17.091C24.7416 17.0821 24.3638 16.9384 24.1534 16.5918C23.9371 16.2333 22.6572 14.2689 22.4557 12.6808C22.3431 11.7875 22.9401 11.5934 22.9905 11.5815C22.8438 11.6038 22.7001 11.6556 22.5683 11.7534C21.875 12.26 22.4557 13.7089 22.7535 14.3889Z" fill="#7D9BA5"/>
<path d="M36.4402 22.6331C36.4402 22.6331 36.2787 22.7145 36.0521 22.7353C35.8254 22.756 35.3528 22.6908 35.1528 22.6938C34.9528 22.6968 34.778 22.7501 34.778 22.7501C34.778 22.7501 34.9262 22.6508 35.1573 22.6405C35.3899 22.6271 36.0713 22.7753 36.4402 22.6331Z" fill="white"/>
<path d="M40.7306 27.0601C40.6772 27.2275 40.0609 28.1874 40.3098 28.4289C40.4757 28.5904 41.0772 28.7771 41.5157 28.9993H41.929C41.4742 28.7237 40.6032 28.4393 40.5632 28.3074C40.5098 28.1326 41.0239 27.1149 41.0787 26.9475C41.1068 26.8601 39.7261 25.986 38.3869 25.1638C38.5454 25.2779 40.7839 26.8986 40.7306 27.0601Z" fill="#CDFC3E"/>
<path d="M46.2923 32.6637C46.3041 32.6607 46.316 32.6592 46.3263 32.6562C46.6626 32.5777 47.0004 32.6399 47.2967 32.7925C47.2745 32.7051 47.2463 32.5925 47.2122 32.4607H46.3189C46.3145 32.5274 46.3056 32.5955 46.2923 32.6637Z" fill="#324A54"/>
<path d="M46.095 28.9992C46.0831 28.974 46.0727 28.9474 46.0609 28.9222C45.3602 27.3281 44.3795 26.9563 44.3795 26.9563L44.018 29.0007H46.095V28.9992Z" fill="#324A54"/>
<path d="M38.9279 24.6072C38.9279 24.6072 39.236 24.0872 39.116 23.5139C38.996 22.9406 38.6212 21.8932 39.1871 21.1643C39.1871 21.1643 38.519 21.508 38.6079 22.4621C38.6597 23.0206 38.9249 23.4102 38.9946 23.8487C39.0346 24.1035 38.9857 24.422 38.9279 24.6072Z" fill="white"/>
<path d="M39.217 23.5155C39.217 23.5155 39.097 23.074 39.1103 22.8444C39.1237 22.6148 39.2733 22.2799 39.4451 22.0266C39.657 21.7155 39.4985 21.3289 39.4985 21.3289C39.4985 21.3289 39.8155 21.7096 39.6555 22.1185C39.5355 22.4222 39.0748 22.7155 39.217 23.5155Z" fill="white"/>
<path d="M39.1842 22.1661C39.1842 22.1661 38.8553 21.7972 39.0568 21.2431C39.1738 20.9231 39.2049 20.4254 39.1116 20.1572C39.1116 20.1572 39.2849 20.335 39.2968 20.8135C39.3086 21.292 39.0183 21.5839 39.1842 22.1661Z" fill="white"/>
</g>
<path d="M44.0756 14.6451C42.5956 15.8821 39.6031 17.1428 36.6061 16.9369C29.8626 16.4732 28.4538 13.777 26.1545 12.6792C24.4568 11.8689 21.1369 11.3296 20.0421 9.75043C19.254 8.61564 19.9903 7.07346 21.3591 6.88976C22.1828 6.78013 23.3946 6.94013 25.1057 7.86307C30.3026 10.663 33.0166 10.1297 36.6239 10.466C40.2312 10.8023 49.3555 10.2304 44.0756 14.6451Z" fill="#1A2B33"/>
<path d="M25.2212 8.09995C25.2212 8.09995 23.1131 6.90739 21.5265 7.10887C20.8554 7.19479 20.2835 7.66737 20.1354 8.32661C20.122 8.38587 20.1117 8.44809 20.1057 8.51179C20.1057 8.51179 20.3487 7.95181 21.1131 7.76515C22.7146 7.37405 25.1234 8.92067 25.1234 8.92067" fill="#304249"/>
<path d="M40.1468 10.8943C40.1468 10.8943 44.8208 10.9921 45.2163 12.2498C45.6593 13.6601 42.3912 15.5401 41.2905 15.9045C40.3054 16.2319 37.9365 16.9682 35.1559 16.6393C32.3752 16.3104 26.9783 12.4454 25.4761 11.7372C25.4761 11.7372 25.3502 11.5965 29.913 13.0957C32.8004 14.0453 38.0239 13.795 40.1261 12.9772C40.0343 12.2172 40.175 11.912 40.1468 10.8943Z" fill="#324A54"/>
<path d="M40.1259 12.9799C40.1259 12.9799 40.24 11.6155 40.3259 9.98296C40.3511 9.48075 40.3733 8.95336 40.3911 8.43337C40.4133 7.66302 40.4029 6.25268 40.3674 5.40678C40.3555 5.15345 40.3422 4.95197 40.3274 4.83198C40.2844 4.48828 40.2059 4.08385 40.0592 3.69126C40.0518 3.67349 40.0474 3.65867 40.0429 3.6483C40.04 3.63942 40.0355 3.63053 40.0326 3.62164C39.7926 3.01425 39.3896 2.44241 38.7096 2.16686C37.7126 1.76391 36.243 2.07649 34.9142 2.36982H34.9097C34.3379 2.49574 33.7927 2.61722 33.3216 2.67499C31.935 1.62761 30.772 -0.15901 29.5365 0.0113565C27.4595 0.295794 25.2137 4.50902 24.6329 8.72521C24.4122 10.3267 34.2905 14.2332 40.1259 12.9799Z" fill="#1A2B33"/>
<path d="M32.7706 2.8899C33.7913 3.65581 35.4283 3.98913 36.4135 4.04098C36.9735 4.07061 37.6831 4.19061 38.3483 4.33727C38.6979 4.39208 39.246 4.32246 38.9083 3.58321C38.5705 2.84249 38.0475 2.46917 37.3705 2.30325C36.7276 2.14769 35.0802 2.34621 34.9128 2.36695C36.2417 2.0751 37.7098 1.76104 38.7083 2.16399C39.3882 2.43954 39.7912 3.01138 40.0312 3.61877C40.0342 3.62766 40.0386 3.63655 40.0416 3.64544C40.046 3.65729 40.0505 3.6721 40.0579 3.6884C40.2045 4.08098 40.283 4.48541 40.326 4.82911C40.3275 4.84541 40.3304 4.86318 40.3319 4.88096C40.3319 4.88392 40.3319 4.88689 40.3334 4.88985C40.3453 5.01281 40.3571 5.1891 40.366 5.40391C40.366 5.40391 40.366 5.40391 40.3645 5.40391C40.4001 6.24981 40.4119 7.66015 40.3897 8.4305C40.3734 8.95049 40.3497 9.47936 40.3245 9.98009C39.5408 10.1549 37.7083 10.3386 37.7083 10.3386C37.7083 10.3386 38.1468 6.04982 37.4135 5.42613C36.6802 4.80393 36.418 5.00392 34.5854 4.51801C32.7543 4.03357 31.6373 2.53732 30.7055 1.48993C29.7766 0.442552 28.9426 0.436626 28.9426 0.436626C30.267 -0.118916 31.7499 2.12251 32.7706 2.8899Z" fill="#324A54"/>
<path d="M40.3441 9.60967C40.3441 9.60967 40.4004 9.60226 40.3855 9.64226C40.3707 9.68078 40.3618 10.6408 40.3381 11.017C40.3144 11.3933 40.1826 12.8629 40.1811 12.8763C40.1796 12.8896 40.2211 12.9459 40.1248 12.9814C40.1248 12.9814 34.7472 14.5236 30.9532 10.6289C35.6331 10.5741 38.8789 9.92374 39.8448 9.7193C40.0581 9.67337 40.23 9.63486 40.3441 9.60967Z" fill="#CDFC3E"/>
<path d="M39.8879 9.80642L40.319 9.69531L40.0805 12.9545L39.8879 9.80642Z" fill="white"/>
<path d="M39.3251 3.84497C39.4377 4.6331 39.5473 5.42864 39.6555 6.22713C39.8007 7.30118 39.9384 8.36634 40.0688 9.42409C40.1295 8.74115 40.1518 8.16338 40.1606 7.72043C40.1725 7.10711 40.1577 6.69823 40.1488 6.48046C40.1251 5.96788 40.0881 5.65233 40.0569 5.43752C39.9518 4.70569 39.8288 4.47014 39.7666 4.36348C39.6229 4.11756 39.4496 3.94867 39.3251 3.84497Z" fill="white"/>
<path d="M43.784 11.6787C43.8137 11.621 44.1218 11.6773 44.3707 11.8447C44.4448 11.895 44.8166 12.1454 44.827 12.5291C44.8388 12.9054 44.5011 13.2935 43.9944 13.3987C44.0789 13.3305 44.5188 12.9706 44.4507 12.5839C44.4225 12.418 44.3055 12.2758 44.1544 12.0906C43.9307 11.8165 43.7603 11.7247 43.784 11.6787Z" fill="white"/>
<path d="M40.1175 25.9561C41.4286 26.2997 42.7382 26.6434 44.0493 26.9871C43.5397 27.0227 42.759 27.0168 41.8582 26.759C41.0968 26.5397 40.5116 26.2153 40.1175 25.9561Z" fill="white"/>
<path d="M35.0778 23.3111C35.143 23.2519 35.2067 23.1911 35.2689 23.1289C35.2704 23.1274 35.2704 23.1289 35.2719 23.1274C35.2911 23.1156 35.3119 23.1008 35.3282 23.0859C35.3297 23.0845 35.3297 23.0845 35.3297 23.0845C35.3474 23.0756 35.3652 23.0667 35.383 23.0563C35.3904 23.0548 35.3963 23.0534 35.4037 23.0504C35.426 23.0445 35.4511 23.0371 35.4778 23.0311C35.5045 23.0252 35.5311 23.0163 35.5593 23.0104C35.5874 23.003 35.6171 22.9956 35.6467 22.9882C35.6615 22.9852 35.6763 22.9808 35.6926 22.9763C35.8378 23.0578 36.2496 23.3185 36.66 23.8489C37.1696 24.5081 37.9414 25.4326 37.9414 25.4326C37.9414 25.4326 37.9726 25.1407 37.9918 25.0459C38.0111 24.9511 38.2911 24.7407 38.9873 24.7185C39.374 24.7052 39.6096 24.7674 39.7429 24.8237C39.8318 24.8622 39.897 24.9422 39.9162 25.037C39.9829 25.3629 40.1207 25.917 40.1014 26.5999C40.0881 27.0696 39.9444 27.3481 39.2451 27.4695C38.6155 27.5777 38.1163 27.4399 37.7177 26.8355C37.3178 26.2311 36.5193 25.0222 36.26 24.6104C36.0008 24.1985 35.6482 23.6059 35.3504 23.443C35.2082 23.3659 35.0926 23.3659 35.0052 23.36C35.0304 23.3467 35.0556 23.3304 35.0778 23.3111ZM39.6999 24.9807C39.6984 24.9748 39.6999 24.9733 39.6955 24.9615C39.694 24.957 39.6925 24.9511 39.6896 24.9481L39.6836 24.9392C39.6792 24.9333 39.6762 24.9289 39.6718 24.9229C39.654 24.9052 39.6362 24.8933 39.6184 24.8844C39.6007 24.8755 39.5844 24.8681 39.5666 24.8637C39.5325 24.8518 39.4999 24.8444 39.4673 24.8385C39.4036 24.8266 39.3429 24.8222 39.2881 24.8192C39.177 24.8148 39.0851 24.8207 39.0214 24.8266C38.9888 24.8296 38.9651 24.8326 38.9473 24.8355C38.9311 24.8385 38.9207 24.84 38.9207 24.84C38.9207 24.84 38.9577 24.8429 39.0214 24.8459C39.0851 24.8503 39.1755 24.8578 39.2822 24.874C39.3355 24.8829 39.3933 24.8933 39.451 24.9081C39.4807 24.9155 39.5103 24.9244 39.537 24.9363C39.5503 24.9422 39.5636 24.9481 39.577 24.9555C39.5888 24.9629 39.6007 24.9703 39.6051 24.9778C39.6066 24.9792 39.6081 24.9807 39.6081 24.9822C39.6081 24.9822 39.6081 24.9822 39.6081 24.9837C39.6081 24.9837 39.6081 24.9852 39.6081 24.9866C39.6081 24.9881 39.6021 24.997 39.5933 25.0044C39.5725 25.0207 39.5429 25.0355 39.5133 25.0474C39.451 25.0711 39.3829 25.0903 39.3133 25.1037C39.2436 25.1185 39.1725 25.1289 39.1029 25.1377C39.0333 25.1466 38.9636 25.1526 38.8955 25.157C38.8288 25.1614 38.7636 25.1629 38.7014 25.1629C38.6392 25.1629 38.5814 25.1614 38.5281 25.157C38.4214 25.1496 38.3311 25.1348 38.2733 25.1126C38.2451 25.1007 38.2244 25.0874 38.214 25.074C38.2037 25.0607 38.2037 25.0503 38.2037 25.0503C38.2037 25.0503 38.2022 25.0592 38.2096 25.077C38.217 25.0933 38.2363 25.1126 38.2644 25.1289C38.2925 25.1466 38.3296 25.1615 38.3725 25.1763C38.4155 25.1896 38.4659 25.2029 38.5207 25.2118C38.5755 25.2222 38.6348 25.2296 38.6985 25.234C38.7622 25.2385 38.8288 25.2414 38.8985 25.2414C38.9681 25.2414 39.0392 25.237 39.1118 25.2311C39.1844 25.2237 39.2585 25.2133 39.331 25.1985C39.4036 25.1837 39.4777 25.1644 39.5473 25.1333C39.5829 25.1185 39.6184 25.1007 39.651 25.0711C39.6673 25.0563 39.6851 25.0355 39.6925 25.0029C39.694 24.9985 39.694 24.9955 39.694 24.9911V24.9852V24.9822C39.6999 24.9837 39.6999 24.9896 39.6999 24.9807ZM39.3207 27.3807C39.3799 27.3732 39.4629 27.3599 39.5607 27.3273C39.6096 27.311 39.6614 27.2903 39.7133 27.2621C39.7651 27.234 39.8184 27.1984 39.8658 27.1525C39.8895 27.1288 39.9118 27.1051 39.9325 27.077C39.9503 27.0518 39.971 27.0192 39.9844 26.9866C40.0125 26.9229 40.0288 26.8547 40.0407 26.7866C40.051 26.7184 40.0584 26.6503 40.0614 26.5836C40.0658 26.517 40.0658 26.4518 40.0644 26.3881C40.0644 26.3244 40.0599 26.2636 40.0569 26.2059C40.054 26.1481 40.0481 26.0933 40.0436 26.0429C40.0229 25.8414 39.9947 25.7096 39.9947 25.7096C39.9947 25.7096 39.9962 25.7437 39.9992 25.8014C40.0021 25.8607 40.0066 25.9437 40.0095 26.0444C40.011 26.0948 40.0125 26.1496 40.0125 26.2073C40.014 26.2651 40.0125 26.3259 40.0125 26.3881C40.011 26.4503 40.0081 26.5155 40.0036 26.5807C39.9992 26.6459 39.9918 26.7125 39.9814 26.7762C39.971 26.8414 39.9562 26.9051 39.931 26.9629C39.9281 26.9703 39.9251 26.9777 39.9221 26.9836L39.9118 27.0044C39.9103 27.0073 39.9073 27.0118 39.9073 27.0133L39.9014 27.0236C39.897 27.031 39.8925 27.0384 39.8881 27.0444C39.8718 27.0681 39.851 27.0933 39.8303 27.114C39.7873 27.157 39.7414 27.194 39.6925 27.2221C39.6451 27.2518 39.5962 27.2755 39.5503 27.2947C39.4584 27.3332 39.377 27.354 39.3207 27.3673C39.2629 27.3807 39.2303 27.3851 39.2303 27.3851C39.2303 27.3851 39.2614 27.3881 39.3207 27.3807ZM38.9459 25.3303C39.0066 25.3274 39.0703 25.3214 39.1296 25.3155C39.1903 25.3096 39.2496 25.2992 39.3059 25.2889C39.4199 25.2666 39.5251 25.2385 39.6125 25.2029C39.6984 25.1674 39.7681 25.1259 39.8036 25.0844C39.8214 25.0637 39.8303 25.0429 39.8333 25.0281C39.8347 25.0207 39.8347 25.0148 39.8347 25.0118C39.8347 25.0163 39.8333 25.0207 39.8318 25.0281C39.8273 25.0415 39.817 25.0592 39.7977 25.077C39.7592 25.1126 39.6896 25.1452 39.6036 25.1718C39.5177 25.1985 39.4125 25.2207 39.2999 25.2385C39.2436 25.2474 39.1859 25.2533 39.1251 25.2592C39.0659 25.2652 39.0051 25.2696 38.9444 25.2726C38.8836 25.2755 38.8229 25.277 38.7637 25.277C38.7044 25.277 38.6451 25.2755 38.5888 25.2726C38.5325 25.2696 38.4777 25.2652 38.4259 25.2592C38.374 25.2533 38.3251 25.2459 38.2807 25.2355C38.1918 25.2163 38.1207 25.1911 38.0777 25.16C38.057 25.1437 38.0437 25.1274 38.0392 25.114C38.0363 25.1081 38.0348 25.1022 38.0348 25.0992C38.0333 25.0963 38.0333 25.0933 38.0333 25.0933C38.0333 25.0933 38.0333 25.0948 38.0333 25.0992C38.0333 25.1037 38.0333 25.1081 38.0363 25.1155C38.0407 25.1303 38.0511 25.1496 38.0703 25.1689C38.1103 25.2074 38.1829 25.2429 38.2718 25.2696C38.3163 25.2829 38.3651 25.2948 38.4185 25.3037C38.4703 25.3126 38.5266 25.3214 38.5844 25.3259C38.6422 25.3303 38.7029 25.3348 38.7637 25.3363C38.8214 25.3333 38.8836 25.3333 38.9459 25.3303ZM38.4866 25.5333C38.3311 26.4622 38.6185 26.2948 38.6644 26.0074C38.7103 25.7185 38.5148 25.3674 38.4866 25.5333ZM37.9874 26.8873C38.0496 27.3362 38.5977 27.4162 38.5977 27.4162C38.5977 27.4162 38.2229 27.2488 38.1459 26.8103C38.0289 26.1525 38.0126 25.3437 38.0126 25.3437C38.0126 25.3437 37.9059 26.2962 37.9874 26.8873ZM37.5726 25.6711C37.737 25.6696 37.9222 25.5837 37.9222 25.5837C37.9222 25.5837 37.7148 25.5763 37.5755 25.4592C37.4926 25.3896 37.2081 24.9615 37.0274 24.7615C36.9044 24.6252 36.8526 24.6829 36.8526 24.6829C36.8526 24.6829 37.4081 25.6711 37.5726 25.6711ZM36.4793 24.8533C36.4793 24.8533 36.4852 24.8415 36.4926 24.8222C36.497 24.8118 36.503 24.8015 36.5089 24.7881C36.5119 24.7807 36.5163 24.7748 36.5193 24.7674C36.5237 24.76 36.5267 24.7526 36.5311 24.7452C36.5356 24.7378 36.54 24.7304 36.5459 24.7229C36.5519 24.7155 36.5563 24.7081 36.5622 24.6992C36.5681 24.6918 36.5741 24.6844 36.5815 24.6755C36.5889 24.6681 36.5948 24.6607 36.6022 24.6533C36.6096 24.6459 36.617 24.6385 36.6259 24.6311C36.6348 24.6252 36.6422 24.6163 36.6511 24.6104C36.6689 24.597 36.6867 24.5852 36.7059 24.5733C36.7444 24.5511 36.7859 24.5333 36.8274 24.5185C36.8689 24.5037 36.9074 24.4933 36.943 24.4829C36.977 24.4741 37.0081 24.4667 37.0289 24.4622C37.0496 24.4578 37.063 24.4548 37.063 24.4548C37.063 24.4548 37.0511 24.4504 37.0289 24.4459C37.0067 24.4415 36.9755 24.437 36.9385 24.4355C36.9 24.4355 36.8556 24.4385 36.8096 24.4474C36.7859 24.4533 36.7622 24.4592 36.7385 24.4681C36.7148 24.477 36.6911 24.4889 36.6674 24.5007C36.6452 24.5141 36.623 24.5289 36.6037 24.5467C36.583 24.5629 36.5667 24.5822 36.5504 24.6029C36.543 24.6133 36.5356 24.6237 36.5296 24.6326C36.5237 24.6429 36.5178 24.6533 36.5133 24.6637C36.5089 24.6741 36.5044 24.6844 36.5 24.6933C36.497 24.7037 36.4941 24.7126 36.4911 24.7229C36.4852 24.7422 36.4822 24.7585 36.4807 24.7748C36.4793 24.7896 36.4778 24.8029 36.4778 24.8148C36.4778 24.8415 36.4793 24.8533 36.4793 24.8533ZM36.0022 23.5941C36.3193 23.8296 36.6022 24.4089 36.6763 24.4252C36.7489 24.4415 36.7252 24.3585 36.7163 24.3437C36.2348 23.517 35.6852 23.357 36.0022 23.5941Z" fill="white"/>
<path d="M36.5385 24.8549C36.5414 24.849 36.5429 24.8416 36.5474 24.8342C36.5518 24.8267 36.5563 24.8179 36.5607 24.809C36.5651 24.8001 36.5726 24.7912 36.58 24.7808C36.5859 24.7705 36.5948 24.7616 36.6037 24.7527C36.6111 24.7423 36.6214 24.7334 36.6303 24.7245C36.6392 24.7156 36.6511 24.7068 36.6614 24.6979C36.6718 24.689 36.6822 24.6801 36.694 24.6727C36.7059 24.6653 36.7163 24.6564 36.7266 24.6505C36.737 24.643 36.7474 24.6371 36.7577 24.6297C36.7681 24.6238 36.7785 24.6179 36.7874 24.6119C36.8051 24.6016 36.8214 24.5927 36.8318 24.5882C36.8422 24.5823 36.8496 24.5793 36.8496 24.5793C36.8496 24.5793 36.8422 24.5808 36.8303 24.5838C36.8185 24.5868 36.8022 24.5927 36.7814 24.6016C36.7711 24.606 36.7607 24.6105 36.7503 24.6164C36.74 24.6223 36.7281 24.6282 36.7163 24.6342C36.7044 24.6401 36.6926 24.649 36.6822 24.6564C36.6703 24.6638 36.66 24.6742 36.6481 24.6816C36.6377 24.6919 36.6274 24.7008 36.617 24.7112C36.6081 24.7216 36.5977 24.7319 36.5903 24.7423C36.5829 24.7527 36.574 24.763 36.5681 24.7734C36.5622 24.7838 36.5563 24.7942 36.5518 24.8045C36.5474 24.8149 36.5444 24.8238 36.5414 24.8312C36.5385 24.8401 36.537 24.8475 36.5355 24.8534C36.5326 24.8653 36.5311 24.8727 36.5311 24.8727C36.5311 24.8727 36.534 24.8653 36.5385 24.8549Z" fill="white"/>
<defs>
<linearGradient id="paint0_linear_1302_1801" x1="7.87685" y1="33.0553" x2="63.8054" y2="63.9206" gradientUnits="userSpaceOnUse">
<stop offset="0.081971" stop-color="#171717"/>
<stop offset="0.75264" stop-color="#1E1E1E"/>
</linearGradient>
<linearGradient id="paint1_linear_1302_1801" x1="59.9721" y1="44.1112" x2="0.842044" y2="44.1112" gradientUnits="userSpaceOnUse">
<stop stop-color="#B3B3B3"/>
<stop offset="1" stop-color="#4D4D4D"/>
</linearGradient>
<linearGradient id="paint2_linear_1302_1801" x1="-nan" y1="-nan" x2="-nan" y2="-nan" gradientUnits="userSpaceOnUse">
<stop stop-color="#B3B3B3"/>
<stop offset="1" stop-color="#4D4D4D"/>
</linearGradient>
</defs>
</svg>
