<svg width="48" height="48" viewBox="0 0 48 48" fill="none" xmlns="http://www.w3.org/2000/svg">
<rect width="48" height="48" rx="10" fill="#393939"/>
<path d="M36.1165 27.0358V17.5253H38.8084C38.9534 17.5253 39.071 17.4077 39.071 17.2626C39.071 17.1176 38.9534 17 38.8084 17H9.26263C9.11759 17 9 17.1176 9 17.2626C9 17.4077 9.11759 17.5253 9.26263 17.5253H11.9546V27.0358C10.0254 28.3441 9.09829 29.5211 9.05535 29.5763C8.96638 29.6907 8.98693 29.8555 9.10131 29.9446C9.21562 30.0336 9.38068 30.0133 9.46984 29.8989C9.4812 29.8844 10.6315 28.429 12.9922 26.9934C15.1694 25.6693 18.8526 24.091 24.0355 24.091C29.2184 24.091 32.9017 25.6693 35.0789 26.9934C37.4395 28.429 38.5898 29.8843 38.6012 29.8989C38.6862 30.0074 38.8548 30.0342 38.9696 29.9448C39.084 29.8558 39.1047 29.6908 39.0156 29.5763C38.9727 29.521 38.0457 28.3441 36.1165 27.0358ZM15.894 25.0007C14.6076 25.4896 12.5508 26.6481 12.4798 26.6927V17.5253H15.894V25.0007ZM19.8335 23.9237C18.5704 24.1455 17.4327 24.4551 16.4193 24.8091V17.5253H19.8335V23.9237ZM23.7729 23.5671C22.5525 23.5795 21.4142 23.6775 20.3587 23.8377V17.5253H23.7729V23.5671ZM27.7123 23.8377C26.6568 23.6775 25.5185 23.5794 24.2981 23.5671V17.5253H27.7123V23.8377ZM31.6518 24.8092C30.6383 24.4551 29.5006 24.1455 28.2376 23.9238V17.5253H31.6518V24.8092ZM35.5912 26.6927C35.5203 26.648 33.4634 25.4896 32.177 25.0006V17.5253H35.5912V26.6927Z" fill="#8D8D8D"/>
</svg>
