<svg width="48" height="48" viewBox="0 0 48 48" fill="none" xmlns="http://www.w3.org/2000/svg">
<rect width="48" height="48" rx="10" fill="#393939"/>
<g clip-path="url(#clip0_1537_31)">
<path d="M29 36C25.606 36 22 34.948 22 33C22 32.724 22.224 32.5 22.5 32.5C22.776 32.5 23 32.724 23 33C23 33.835 25.282 35 29 35C32.718 35 35 33.835 35 33C35 32.724 35.224 32.5 35.5 32.5C35.776 32.5 36 32.724 36 33C36 34.948 32.394 36 29 36Z" fill="#8D8D8D"/>
<path d="M29 33C25.606 33 22 31.948 22 30C22 29.724 22.224 29.5 22.5 29.5C22.776 29.5 23 29.724 23 30C23 30.835 25.282 32 29 32C32.718 32 35 30.835 35 30C35 29.724 35.224 29.5 35.5 29.5C35.776 29.5 36 29.724 36 30C36 31.948 32.394 33 29 33Z" fill="#8D8D8D"/>
<path d="M29 30C25.606 30 22 28.948 22 27C22 25.052 25.606 24 29 24C32.394 24 36 25.052 36 27C36 28.948 32.394 30 29 30ZM29 25C25.282 25 23 26.165 23 27C23 27.835 25.282 29 29 29C32.718 29 35 27.835 35 27C35 26.165 32.718 25 29 25Z" fill="#8D8D8D"/>
<path d="M35.5 33.5C35.224 33.5 35 33.276 35 33V27C35 26.724 35.224 26.5 35.5 26.5C35.776 26.5 36 26.724 36 27V33C36 33.276 35.776 33.5 35.5 33.5Z" fill="#8D8D8D"/>
<path d="M22.5 33.5C22.224 33.5 22 33.276 22 33V27C22 26.724 22.224 26.5 22.5 26.5C22.776 26.5 23 26.724 23 27V33C23 33.276 22.776 33.5 22.5 33.5Z" fill="#8D8D8D"/>
<path d="M19 24C15.606 24 12 22.948 12 21C12 20.724 12.224 20.5 12.5 20.5C12.776 20.5 13 20.724 13 21C13 21.835 15.282 23 19 23C22.718 23 25 21.835 25 21C25 20.724 25.224 20.5 25.5 20.5C25.776 20.5 26 20.724 26 21C26 22.948 22.394 24 19 24Z" fill="#8D8D8D"/>
<path d="M19 21C15.606 21 12 19.948 12 18C12 17.724 12.224 17.5 12.5 17.5C12.776 17.5 13 17.724 13 18C13 18.835 15.282 20 19 20C22.718 20 25 18.835 25 18C25 17.724 25.224 17.5 25.5 17.5C25.776 17.5 26 17.724 26 18C26 19.948 22.394 21 19 21Z" fill="#8D8D8D"/>
<path d="M19 30C15.606 30 12 28.948 12 27C12 26.724 12.224 26.5 12.5 26.5C12.776 26.5 13 26.724 13 27C13 27.835 15.282 29 19 29C19.544 29 20.018 28.978 20.447 28.933C20.718 28.903 20.968 29.103 20.997 29.377C21.026 29.651 20.827 29.898 20.553 29.927C20.087 29.977 19.579 30 19 30Z" fill="#8D8D8D"/>
<path d="M19 33C15.606 33 12 31.948 12 30C12 29.724 12.224 29.5 12.5 29.5C12.776 29.5 13 29.724 13 30C13 30.835 15.282 32 19 32C19.544 32 20.018 31.978 20.447 31.933C20.718 31.898 20.968 32.103 20.997 32.377C21.026 32.651 20.827 32.898 20.553 32.927C20.087 32.977 19.579 33 19 33Z" fill="#8D8D8D"/>
<path d="M19 27C15.606 27 12 25.948 12 24C12 23.724 12.224 23.5 12.5 23.5C12.776 23.5 13 23.724 13 24C13 24.835 15.282 26 19 26C19.544 26 20.018 25.978 20.447 25.933C20.718 25.901 20.968 26.102 20.997 26.377C21.026 26.651 20.827 26.898 20.553 26.927C20.087 26.977 19.579 27 19 27Z" fill="#8D8D8D"/>
<path d="M19 18C15.606 18 12 16.948 12 15C12 13.052 15.606 12 19 12C22.394 12 26 13.052 26 15C26 16.948 22.394 18 19 18ZM19 13C15.282 13 13 14.165 13 15C13 15.835 15.282 17 19 17C22.718 17 25 15.835 25 15C25 14.165 22.718 13 19 13Z" fill="#8D8D8D"/>
<path d="M12.5 30.5C12.224 30.5 12 30.276 12 30V15C12 14.724 12.224 14.5 12.5 14.5C12.776 14.5 13 14.724 13 15V30C13 30.276 12.776 30.5 12.5 30.5Z" fill="#8D8D8D"/>
<path d="M25.5 21.5C25.224 21.5 25 21.276 25 21V15C25 14.724 25.224 14.5 25.5 14.5C25.776 14.5 26 14.724 26 15V21C26 21.276 25.776 21.5 25.5 21.5Z" fill="#8D8D8D"/>
</g>
<defs>
<clipPath id="clip0_1537_31">
<rect width="24" height="24" fill="white" transform="translate(12 12)"/>
</clipPath>
</defs>
</svg>
